<?xml version="1.0" encoding="UTF-8"?>
<svg version="1.1" xmlns="http://www.w3.org/2000/svg" width="1024" height="1024">
<path d="M0 0 C0.95422852 0.00161133 1.90845703 0.00322266 2.89160156 0.00488281 C11.52547888 0.1524952 19.20580177 1.67064915 27.375 4.375 C28.30441406 4.67535156 29.23382813 4.97570312 30.19140625 5.28515625 C51.74971827 13.07853665 66.86889174 31.46335649 76.54541016 51.54541016 C79.16989985 57.33349896 81.375 62.99240626 81.375 69.375 C82.035 69.705 82.695 70.035 83.375 70.375 C83.8608133 72.90034863 84.21006507 75.32776414 84.4765625 77.87890625 C84.56024078 78.64231827 84.64391907 79.40573029 84.73013306 80.192276 C85.55308051 88.23089151 85.77336197 96.23659465 85.75 104.3125 C85.74912384 105.06479889 85.74824768 105.81709778 85.74734497 106.5921936 C85.55077383 158.28224138 64.78604518 208.95601279 30.375 247.375 C29.18440737 248.80993961 27.99631021 250.24695986 26.8125 251.6875 C26.008125 252.574375 25.20375 253.46125 24.375 254.375 C23.715 254.375 23.055 254.375 22.375 254.375 C22.045 255.365 21.715 256.355 21.375 257.375 C20.715 257.375 20.055 257.375 19.375 257.375 C19.375 258.035 19.375 258.695 19.375 259.375 C-4.66985241 281.79205776 -29.83337431 292.48089843 -62.43994141 291.56298828 C-69.17423134 291.16551754 -75.25458666 289.56721658 -81.625 287.375 C-82.51445312 287.09785156 -83.40390625 286.82070313 -84.3203125 286.53515625 C-105.5534077 279.1274687 -121.84655002 261.36769858 -131.6171875 241.70703125 C-150.4134415 202.15767702 -143.86924185 154.04183707 -129.7890625 114.171875 C-120.5300674 88.90480769 -106.92534669 66.88779018 -89.625 46.375 C-89.09261719 45.71886719 -88.56023437 45.06273437 -88.01171875 44.38671875 C-84.90361655 40.60840583 -81.53454796 37.40063352 -77.796875 34.24609375 C-76.31231127 32.96712608 -74.86511804 31.64381862 -73.453125 30.28515625 C-58.93614069 16.42582056 -40.07911087 6.94098153 -20.625 2.375 C-19.87637695 2.19839844 -19.12775391 2.02179688 -18.35644531 1.83984375 C-12.20093743 0.48539015 -6.29643597 -0.01123962 0 0 Z M21.375 20.375 C18.47306893 24.43343427 16.61401891 27.97633713 15.11328125 32.78515625 C14.72140625 34.01210205 14.32953125 35.23904785 13.92578125 36.50317383 C13.7242041 37.14525787 13.52262695 37.78734192 13.31494141 38.44888306 C3.48600881 69.60076704 -10.37595161 96.46175058 -32.25 120.9375 C-41.87851874 131.78669933 -49.59173302 143.64744587 -55.9375 156.6875 C-56.30963623 157.44305176 -56.68177246 158.19860352 -57.06518555 158.97705078 C-65.74612329 177.62894911 -69.97751718 197.68416423 -74.25 217.6875 C-75.33745205 222.74806326 -76.43310691 227.80672909 -77.5390625 232.86328125 C-77.80003723 234.05986359 -78.06101196 235.25644592 -78.32989502 236.48928833 C-80.05904502 244.25986255 -82.11590788 251.78878967 -84.75537109 259.29760742 C-85.65248922 262.47227727 -85.79148258 265.09393167 -85.625 268.375 C-83.1172118 268.0258143 -81.94700205 267.78392285 -80.3515625 265.7578125 C-73.67070677 252.06442736 -70.2500252 237.15767482 -66.625 222.4375 C-57.73158174 186.39366733 -45.13108002 157.6647229 -20.6875 129.5 C2.54598469 102.64370518 27.77215886 58.53096239 25.375 21.375 C24.055 21.045 22.735 20.715 21.375 20.375 Z M-53.625 215.375 C-53.955 216.695 -54.285 218.015 -54.625 219.375 C-22.615 219.375 9.395 219.375 42.375 219.375 C41.385 218.055 40.395 216.735 39.375 215.375 C36.44282953 214.99396663 33.88773044 214.86898574 30.95629883 214.92089844 C30.09754654 214.92031433 29.23879425 214.91973022 28.35401917 214.91912842 C25.51294662 214.9219172 22.6729207 214.95304633 19.83203125 214.984375 C17.86334303 214.99183457 15.89464739 214.99752884 13.9259491 215.00152588 C8.74227426 215.01680453 3.55904715 215.05610567 -1.62445068 215.1003418 C-6.91298363 215.14124635 -12.20158886 215.1595266 -17.49023438 215.1796875 C-27.86868639 215.22259767 -38.24680598 215.29087607 -48.625 215.375 C-48.955 216.035 -49.285 216.695 -49.625 217.375 C-50.945 216.715 -52.265 216.055 -53.625 215.375 Z M42.375 216.375 C43.375 218.375 43.375 218.375 43.375 218.375 Z M-10.625 227.375 C-10.625 228.035 -10.625 228.695 -10.625 229.375 C-11.285 229.375 -11.945 229.375 -12.625 229.375 C-11.33980435 232.24197492 -10.05370746 234.35107712 -7.625 236.375 C-6.965 236.375 -6.305 236.375 -5.625 236.375 C-5.625 237.035 -5.625 237.695 -5.625 238.375 C-4.305 238.705 -2.985 239.035 -1.625 239.375 C-4.40262123 242.97562011 -7.36491357 246.20547153 -10.625 249.375 C-8.82107356 250.15014538 -8.82107356 250.15014538 -6.625 250.375 C-4.62503675 249.19634352 -4.62503675 249.19634352 -2.875 247.4375 C-1.95460937 246.58865234 -1.95460937 246.58865234 -1.015625 245.72265625 C-0.55671875 245.27792969 -0.0978125 244.83320312 0.375 244.375 C3.13108432 245.64018526 5.18017459 246.98099438 7.375 249.0625 C10.06013272 251.66709656 10.06013272 251.66709656 12.75 251.1875 C13.28625 250.919375 13.8225 250.65125 14.375 250.375 C13.611875 249.611875 12.84875 248.84875 12.0625 248.0625 C10.59341759 246.59341759 9.13688903 245.10941469 7.75 243.5625 C6.29938937 242.04819006 6.29938937 242.04819006 3.375 242.375 C4.365 241.715 5.355 241.055 6.375 240.375 C6.375 239.715 6.375 239.055 6.375 238.375 C7.035 238.045 7.695 237.715 8.375 237.375 C10.11670298 234.4749475 10.11670298 234.4749475 11.375 231.375 C11.045 230.715 10.715 230.055 10.375 229.375 C9.715 230.695 9.055 232.015 8.375 233.375 C7.715 233.375 7.055 233.375 6.375 233.375 C4.99267557 235.00126404 3.65562485 236.6675002 2.375 238.375 C-2.28025834 237.14272573 -4.38890921 234.64791518 -7.29296875 231.03125 C-8.66994914 229.25814171 -8.66994914 229.25814171 -10.625 227.375 Z M-54.625 228.375 C-55.615 228.87 -55.615 228.87 -56.625 229.375 C-54.90087208 233.40667286 -52.49401006 235.28802696 -49.0859375 237.91015625 C-47.625 239.375 -47.625 239.375 -47.625 242.375 C-46.635 242.54 -45.645 242.705 -44.625 242.875 C-40.00540696 244.12125938 -37.55850994 247.25884078 -34.51953125 250.79296875 C-33.89433594 251.31503906 -33.26914063 251.83710937 -32.625 252.375 C-30.41691386 252.22147357 -30.41691386 252.22147357 -28.625 251.375 C-32.54351404 246.09094319 -36.37626417 242.64087043 -42.625 240.375 C-43.285 240.375 -43.945 240.375 -44.625 240.375 C-44.66625 239.818125 -44.7075 239.26125 -44.75 238.6875 C-46.07651274 235.18171632 -48.71626944 233.64380984 -51.625 231.375 C-52.64180311 230.39209032 -53.65238219 229.40165213 -54.625 228.375 Z M-30.625 227.375 C-30.625 228.035 -30.625 228.695 -30.625 229.375 C-31.615 229.045 -32.605 228.715 -33.625 228.375 C-33.625 229.035 -33.625 229.695 -33.625 230.375 C-34.285 230.375 -34.945 230.375 -35.625 230.375 C-37.43193756 232.16112311 -37.43193756 232.16112311 -39.25 234.375 C-40.19746094 235.48875 -40.19746094 235.48875 -41.1640625 236.625 C-41.64617187 237.2025 -42.12828125 237.78 -42.625 238.375 C-42.295 239.035 -41.965 239.695 -41.625 240.375 C-39.975 239.715 -38.325 239.055 -36.625 238.375 C-36.625 237.715 -36.625 237.055 -36.625 236.375 C-35.7278125 235.9728125 -35.7278125 235.9728125 -34.8125 235.5625 C-32.57906717 234.35006504 -31.12561801 233.42847727 -29.625 231.375 C-29.85257731 229.21200789 -29.85257731 229.21200789 -30.625 227.375 Z M13.375 229.375 C14.375 231.375 14.375 231.375 14.375 231.375 Z M-22.625 237.375 C-23.285 238.695 -23.945 240.015 -24.625 241.375 C-23.305 241.375 -21.985 241.375 -20.625 241.375 C-20.625 240.715 -20.625 240.055 -20.625 239.375 C-19.965 239.045 -19.305 238.715 -18.625 238.375 C-19.945 238.045 -21.265 237.715 -22.625 237.375 Z M20.375 238.375 C20.375 239.365 20.375 240.355 20.375 241.375 C21.035 241.375 21.695 241.375 22.375 241.375 C22.375 240.385 22.375 239.395 22.375 238.375 C21.715 238.375 21.055 238.375 20.375 238.375 Z M-52.6875 245.875 C-53.42097656 246.5246875 -54.15445313 247.174375 -54.91015625 247.84375 C-55.47605469 248.3490625 -56.04195313 248.854375 -56.625 249.375 C-55.635 250.365 -54.645 251.355 -53.625 252.375 C-50.08913986 249.20179218 -48.03921969 247.20756305 -47.625 242.375 C-49.62424273 242.375 -51.28492223 244.62826421 -52.6875 245.875 Z M-46.625 243.375 C-46.295 244.035 -45.965 244.695 -45.625 245.375 C-45.295 244.715 -44.965 244.055 -44.625 243.375 C-45.285 243.375 -45.945 243.375 -46.625 243.375 Z M-10.625 250.375 C-9.625 252.375 -9.625 252.375 -9.625 252.375 Z " fill="#D0C8B8" transform="translate(240.625,346.625)"/>
<path d="M0 0 C0.79273315 0.00404846 1.58546631 0.00809692 2.40222168 0.01226807 C3.62274231 0.00939789 3.62274231 0.00939789 4.86791992 0.00646973 C6.58948068 0.0051078 8.31105171 0.00880479 10.03259277 0.01715088 C12.67296338 0.02785048 15.31265357 0.01725607 17.95300293 0.00445557 C19.62357735 0.00577716 21.29415135 0.00833955 22.96472168 0.01226807 C23.75745483 0.0082196 24.55018799 0.00417114 25.36694336 0 C30.95355141 0.04797279 30.95355141 0.04797279 33.18347168 2.27789307 C32.80847168 5.90289307 32.80847168 5.90289307 32.18347168 9.27789307 C29.54347168 10.26789307 26.90347168 11.25789307 24.18347168 12.27789307 C23.25017325 22.01086239 23.18347168 31.44209218 23.18347168 41.27789307 C36.71347168 41.27789307 50.24347168 41.27789307 64.18347168 41.27789307 C63.85347168 31.37789307 63.52347168 21.47789307 63.18347168 11.27789307 C60.21347168 10.28789307 57.24347168 9.29789307 54.18347168 8.27789307 C54.05847168 5.40289307 54.05847168 5.40289307 54.18347168 2.27789307 C56.75779668 -0.29643193 58.49059814 0.0301356 62 0 C62.79273315 0.00404846 63.58546631 0.00809692 64.40222168 0.01226807 C65.2159021 0.01035461 66.02958252 0.00844116 66.86791992 0.00646973 C68.58948068 0.0051078 70.31105171 0.00880479 72.03259277 0.01715088 C74.67296338 0.02785048 77.31265357 0.01725607 79.95300293 0.00445557 C81.62357735 0.00577716 83.29415135 0.00833955 84.96472168 0.01226807 C86.15382141 0.00619537 86.15382141 0.00619537 87.36694336 0 C92.95355141 0.04797279 92.95355141 0.04797279 95.18347168 2.27789307 C95.30847168 5.40289307 95.30847168 5.40289307 95.18347168 8.27789307 C94.61757324 8.5550415 94.0516748 8.83218994 93.46862793 9.11773682 C92.36841309 9.66107666 92.36841309 9.66107666 91.24597168 10.21539307 C90.14962402 10.75486572 90.14962402 10.75486572 89.03112793 11.30523682 C87.22098141 12.14161134 87.22098141 12.14161134 86.18347168 13.27789307 C86.08910639 15.51719192 86.06604841 17.75951057 86.06994629 20.00079346 C86.06980026 20.70319656 86.06965424 21.40559967 86.06950378 22.12928772 C86.07020296 24.46140585 86.07799551 26.79344506 86.08581543 29.12554932 C86.0876796 30.73837744 86.0891035 32.35120614 86.09010315 33.96403503 C86.09392845 38.21704664 86.10375883 42.4700243 86.11480713 46.72302246 C86.12502099 51.05966737 86.12960072 55.39631773 86.13464355 59.73297119 C86.14538109 68.24796076 86.16245765 76.76292269 86.18347168 85.27789307 C86.74937012 85.4106665 87.31526855 85.54343994 87.89831543 85.68023682 C88.63179199 85.85683838 89.36526855 86.03343994 90.12097168 86.21539307 C90.85187012 86.3894165 91.58276855 86.56343994 92.33581543 86.74273682 C94.18347168 87.27789307 94.18347168 87.27789307 95.18347168 88.27789307 C95.46193225 90.92326849 95.59009452 92.62700607 94.15808105 94.91925049 C91.10199161 97.02201233 87.91880034 96.68567678 84.33972168 96.64117432 C83.57421997 96.64167282 82.80871826 96.64217133 82.02001953 96.64268494 C80.40276491 96.64034614 78.78550654 96.63062894 77.16833496 96.61407471 C74.69258076 96.59047988 72.21790351 96.59351512 69.74206543 96.60015869 C68.17044442 96.5945818 66.59882796 96.58747185 65.02722168 96.57867432 C64.28653442 96.57958572 63.54584717 96.58049713 62.78271484 96.58143616 C59.04611362 96.52987786 57.37176032 96.40341882 54.18347168 94.27789307 C53.99597168 91.15289307 53.99597168 91.15289307 54.18347168 88.27789307 C54.74937012 88.01234619 55.31526855 87.74679932 55.89831543 87.47320557 C56.63179199 87.12000244 57.36526855 86.76679932 58.12097168 86.40289307 C58.85187012 86.05484619 59.58276855 85.70679932 60.33581543 85.34820557 C62.34679627 84.40939537 62.34679627 84.40939537 63.18347168 82.27789307 C63.33695811 78.7477051 63.22492414 75.66261355 62.18347168 72.27789307 C62.84347168 72.27789307 63.50347168 72.27789307 64.18347168 72.27789307 C64.04293296 69.65251023 63.89628221 67.0277188 63.74597168 64.40289307 C63.70665527 63.65652588 63.66733887 62.91015869 63.62683105 62.14117432 C63.46773544 58.07802443 63.46773544 58.07802443 62.18347168 54.27789307 C49.31347168 54.27789307 36.44347168 54.27789307 23.18347168 54.27789307 C23.51347168 64.17789307 23.84347168 74.07789307 24.18347168 84.27789307 C24.84347168 84.27789307 25.50347168 84.27789307 26.18347168 84.27789307 C26.18347168 84.93789307 26.18347168 85.59789307 26.18347168 86.27789307 C27.15284668 86.42226807 28.12222168 86.56664307 29.12097168 86.71539307 C32.18347168 87.27789307 32.18347168 87.27789307 33.18347168 88.27789307 C33.43347168 91.21539307 33.43347168 91.21539307 33.18347168 94.27789307 C29.47786447 96.74829787 26.62688213 96.56695091 22.33972168 96.54351807 C21.19146912 96.54638824 21.19146912 96.54638824 20.02001953 96.54931641 C18.40278799 96.55067639 16.78554547 96.54699293 15.16833496 96.53863525 C12.69266238 96.5279328 10.21771543 96.53853651 7.74206543 96.55133057 C6.17044924 96.55000894 4.59883351 96.54744648 3.02722168 96.54351807 C2.28653442 96.54756653 1.54584717 96.55161499 0.78271484 96.55578613 C-2.96101901 96.5216212 -4.62117665 96.40812751 -7.81652832 94.27789307 C-8.12902832 91.27789307 -8.12902832 91.27789307 -7.81652832 88.27789307 C-5.81652832 86.27789307 -5.81652832 86.27789307 -2.75402832 85.27789307 C0.30497974 84.62036751 0.30497974 84.62036751 1.18347168 82.27789307 C1.2754929 80.03124876 1.30096973 77.78178874 1.29699707 75.53326416 C1.2971431 74.8404686 1.29728912 74.14767303 1.29743958 73.43388367 C1.29674186 71.13966766 1.2889561 68.84553243 1.28112793 66.55133057 C1.27926325 64.96235193 1.27783958 63.37337272 1.27684021 61.78439331 C1.27301899 57.59879982 1.26319207 53.41324093 1.25213623 49.22766113 C1.24191362 44.95795154 1.23734077 40.68823636 1.2322998 36.41851807 C1.22156946 28.03829384 1.20449776 19.65809775 1.18347168 11.27789307 C0.06972168 11.15414307 -1.04402832 11.03039307 -2.19152832 10.90289307 C-5.81652832 10.27789307 -5.81652832 10.27789307 -7.81652832 8.27789307 C-8.06652832 5.27789307 -8.06652832 5.27789307 -7.81652832 2.27789307 C-5.24220332 -0.29643193 -3.50940186 0.0301356 0 0 Z " fill="#CCC4B4" transform="translate(556.8165283203125,403.72210693359375)"/>
<path d="M0 0 C11.08541652 8.24830144 18.47593596 18.88144097 21.6171875 32.46484375 C23.24956292 48.31362589 20.68898507 62.73107207 10.6171875 75.46484375 C0.88651765 85.87150164 -12.02502807 92.37985992 -26.39208984 92.88867188 C-42.00670771 92.99264555 -53.72651312 88.48187361 -65.0859375 77.86328125 C-74.92192058 67.59237375 -78.69153864 55.25159098 -78.41455078 41.21435547 C-77.75687851 25.95158805 -72.11380367 14.67402322 -61.0703125 4.21484375 C-44.38613421 -9.93716583 -18.54452822 -11.94754031 0 0 Z M-31.3828125 4.46484375 C-40.19552877 7.03057127 -46.18048724 9.89706757 -50.84765625 18.01171875 C-57.73667393 32.14918112 -57.8866416 46.50873201 -53.3828125 61.46484375 C-50.36364545 68.98924762 -46.60302535 74.55859578 -39.3828125 78.46484375 C-31.91325729 81.45266584 -24.11362065 81.43595325 -16.5859375 78.6328125 C-9.78157893 75.0255373 -4.90668806 68.66163742 -2.3828125 61.46484375 C1.07196671 49.9113611 1.91677383 34.9207923 -3.1171875 23.75390625 C-7.23086323 16.31373965 -11.16538104 10.27422992 -18.8203125 6.15234375 C-22.70374251 5.11044789 -26.71114594 4.62901047 -30.3828125 6.46484375 C-30.7128125 5.80484375 -31.0428125 5.14484375 -31.3828125 4.46484375 Z " fill="#CCC4B3" transform="translate(786.3828125,409.53515625)"/>
<path d="M0 0 C7.82402838 7.3034781 14.05131442 18.09979062 14.92700195 28.94140625 C15.36975966 46.07313059 13.68169366 59.72963992 1.71875 73.00390625 C-10.073215 84.26181487 -23.74396591 87.39428931 -39.4765625 87.0625 C-49.97537649 86.56354646 -58.68073672 82.62422191 -67.25 76.75 C-68.5803125 75.88375 -68.5803125 75.88375 -69.9375 75 C-80.57532531 64.64968349 -85.02585998 51.86983522 -85.3203125 37.26171875 C-84.77710034 22.89855028 -79.2878428 10.34058605 -68.79296875 0.4296875 C-49.09536557 -15.96985309 -20.15425199 -16.55254156 0 0 Z M-52.25 6.75 C-60.24445253 14.87369311 -63.10327649 25.87232316 -63.4375 37 C-63.30069866 45.93768725 -61.30627284 53.81451385 -57.25 61.75 C-56.858125 62.636875 -56.46625 63.52375 -56.0625 64.4375 C-52.05726373 69.54762903 -45.59201578 73.45571107 -39.25 74.75 C-30.43942731 75.56993485 -23.91986184 74.15456547 -17 68.5625 C-8.73909256 60.75424502 -6.56759899 49.42530889 -6.109375 38.3515625 C-5.95567742 35.821686 -5.95567742 35.821686 -7.25 34.75 C-7.1571875 33.079375 -7.1571875 33.079375 -7.0625 31.375 C-6.96505871 23.6353773 -10.41885755 15.68540359 -15.25 9.75 C-26.20850463 -1.1281244 -39.92478217 -3.46455685 -52.25 6.75 Z " fill="#CDC4B4" transform="translate(536.25,538.25)"/>
<path d="M0 0 C0.64910843 -0.00861557 1.29821686 -0.01723114 1.96699524 -0.02610779 C4.11186638 -0.0488045 6.25543496 -0.04202384 8.40039062 -0.03295898 C9.89107655 -0.03819278 11.38175916 -0.04446836 12.87243652 -0.05174255 C15.99633368 -0.06215331 19.1197755 -0.0575758 22.24365234 -0.04296875 C26.24914514 -0.02577343 30.25320449 -0.0492795 34.25853729 -0.08445835 C37.33666508 -0.10640678 40.41444844 -0.10499741 43.49263 -0.09669304 C44.96944247 -0.0958722 46.4462799 -0.10276095 47.92301941 -0.11746407 C49.98733954 -0.13486694 52.04906608 -0.12041067 54.11328125 -0.09765625 C55.87508728 -0.09621361 55.87508728 -0.09621361 57.67248535 -0.09474182 C60.55664062 0.53344727 60.55664062 0.53344727 62.41638184 2.88148499 C64.61157572 7.98696755 64.6866065 13.29335838 64.93164062 18.78344727 C64.980625 19.79922852 65.02960938 20.81500977 65.08007812 21.86157227 C64.55664062 24.53344727 64.55664062 24.53344727 62.03320312 26.39282227 C61.2159375 26.76922852 60.39867187 27.14563477 59.55664062 27.53344727 C54.96585744 25.43480352 53.24390312 22.77228511 50.96289062 18.47094727 C49.00483031 15.77317528 47.66798264 14.85208261 44.55664062 13.53344727 C40.7888135 13.03569708 37.04095447 12.93163973 33.24414062 12.84594727 C29.71726562 12.74282227 26.19039063 12.63969727 22.55664062 12.53344727 C22.55664062 22.10344727 22.55664062 31.67344727 22.55664062 41.53344727 C33.1013342 42.27600304 33.1013342 42.27600304 42.65429688 38.72094727 C43.83561735 36.56862771 43.83561735 36.56862771 44.68554688 34.34985352 C44.97300781 33.75043945 45.26046875 33.15102539 45.55664062 32.53344727 C48.74414062 31.47094727 48.74414062 31.47094727 51.55664062 31.53344727 C52.21664062 31.86344727 52.87664062 32.19344727 53.55664062 32.53344727 C55.22377605 37.53485355 54.78314554 42.73447952 54.80664062 47.97094727 C54.82726562 49.1162793 54.84789062 50.26161133 54.86914062 51.44165039 C54.876875 53.09390625 54.876875 53.09390625 54.88476562 54.77954102 C54.89411133 55.78686279 54.90345703 56.79418457 54.91308594 57.83203125 C54.50271735 60.94211919 53.73579382 62.30636835 51.55664062 64.53344727 C48.32486593 65.11350939 47.00786484 64.82613324 44.24414062 63.03344727 C43.68726563 62.53844727 43.13039063 62.04344727 42.55664062 61.53344727 C43.21664062 61.53344727 43.87664062 61.53344727 44.55664062 61.53344727 C43.86120623 58.52960673 43.86120623 58.52960673 42.55664062 55.53344727 C38.65466222 54.10524841 34.42200984 54.19298463 30.30664062 53.97094727 C27.74914062 53.82657227 25.19164062 53.68219727 22.55664062 53.53344727 C22.88664062 63.43344727 23.21664062 73.33344727 23.55664062 83.53344727 C27.02164063 83.61594727 30.48664063 83.69844727 34.05664062 83.78344727 C35.13236328 83.81986328 36.20808594 83.8562793 37.31640625 83.89379883 C43.5794148 83.9654421 48.43540089 83.3319827 53.55664062 79.53344727 C55.84473541 77.11804562 55.84473541 77.11804562 57.43164062 74.40844727 C60.51565702 69.57443087 60.51565702 69.57443087 62.55664062 67.53344727 C65.61914062 67.78344727 65.61914062 67.78344727 68.55664062 68.53344727 C71.20334228 73.82685057 69.14362511 80.32800229 67.74414062 85.78344727 C67.57849609 86.48985352 67.41285156 87.19625977 67.2421875 87.92407227 C65.62674916 94.36144165 65.62674916 94.36144165 62.55664062 96.53344727 C59.59655762 96.91439819 59.59655762 96.91439819 55.9296875 96.92163086 C55.26107193 96.92688782 54.59245636 96.93214478 53.90357971 96.93756104 C51.69394555 96.95076252 49.48503208 96.94202308 47.27539062 96.93188477 C45.73986676 96.93390547 44.20434382 96.93681689 42.66882324 96.94058228 C39.45083478 96.9450058 36.23309614 96.93857386 33.01513672 96.92456055 C28.88890447 96.90746838 24.76325759 96.91730945 20.63704681 96.93527794 C17.46632471 96.94611515 14.29574153 96.94266978 11.12501526 96.93489456 C9.6035607 96.93289237 8.08209355 96.93535253 6.56065369 96.94233322 C4.43462684 96.94994699 2.30954979 96.93834609 0.18359375 96.92163086 C-1.02647339 96.91924408 -2.23654053 96.9168573 -3.48327637 96.91439819 C-6.44335938 96.53344727 -6.44335938 96.53344727 -8.3458252 95.19668579 C-9.44335938 93.53344727 -9.44335938 93.53344727 -9.63085938 90.53344727 C-8.44335938 87.53344727 -8.44335938 87.53344727 -6.61914062 86.58422852 C-5.18087999 86.09620112 -3.72489325 85.65734991 -2.25585938 85.27172852 C-1.65773438 85.0280957 -1.05960937 84.78446289 -0.44335938 84.53344727 C0.65773939 81.23015097 0.68359237 78.78409901 0.68603516 75.30541992 C0.68918732 74.0204361 0.69233948 72.73545227 0.69558716 71.41152954 C0.69379689 70.00685594 0.69174581 68.60218264 0.68945312 67.19750977 C0.69012688 65.75645939 0.6910975 64.31540912 0.69235229 62.87435913 C0.69382685 59.85315876 0.69168309 56.83198795 0.68701172 53.81079102 C0.6813248 49.94500679 0.68458837 46.07929216 0.69058418 42.21351051 C0.69420504 39.23661784 0.69304402 36.25974154 0.69045639 33.28284836 C0.68979081 31.8579444 0.69060262 30.43303895 0.69293594 29.00813675 C0.69548632 27.01217936 0.69090747 25.01621674 0.68603516 23.02026367 C0.68523956 21.88569733 0.68444397 20.75113098 0.68362427 19.58218384 C0.56699816 16.78212027 0.19611689 14.25634902 -0.44335938 11.53344727 C-3.08335937 10.87344727 -5.72335937 10.21344727 -8.44335938 9.53344727 C-9.33099474 6.62845879 -9.76035993 5.16245316 -8.36560059 2.39491272 C-5.627071 -0.25703242 -3.77218932 0.01990759 0 0 Z " fill="#CDC4B4" transform="translate(381.443359375,403.466552734375)"/>
<path d="M0 0 C0.65871597 -0.0065712 1.31743195 -0.0131424 1.99610901 -0.01991272 C4.17847808 -0.03964315 6.36077845 -0.05130594 8.54321289 -0.0612793 C9.28784853 -0.06535482 10.03248417 -0.06943035 10.79968452 -0.07362938 C14.73884937 -0.0944863 18.67797938 -0.10879116 22.6171875 -0.11816406 C26.69080458 -0.12924445 30.76387778 -0.16366338 34.83730221 -0.20333576 C37.96595801 -0.22944232 41.09448284 -0.23785039 44.22323799 -0.24144554 C45.72519173 -0.24632487 47.2271391 -0.2579771 48.72898674 -0.27648354 C50.82888217 -0.30075654 52.92735187 -0.29993323 55.02734375 -0.29296875 C56.2226622 -0.29883499 57.41798065 -0.30470123 58.64952087 -0.31074524 C61.57836914 0.17700195 61.57836914 0.17700195 63.4455719 2.0974884 C65.93472902 6.66691686 65.76129477 11.18785744 65.76586914 16.30200195 C65.77811523 17.03032227 65.79036133 17.75864258 65.80297852 18.5090332 C65.80822103 20.39983173 65.70070299 22.29015776 65.57836914 24.17700195 C63.57836914 26.17700195 63.57836914 26.17700195 60.64086914 26.42700195 C57.57836914 26.17700195 57.57836914 26.17700195 54.57836914 24.17700195 C53.48071289 22.30200195 53.48071289 22.30200195 52.51586914 20.17700195 C51.35156145 17.63329358 50.58480363 16.18343644 48.57836914 14.17700195 C45.53177333 13.15251592 42.57267079 12.99072353 39.37524414 12.8605957 C38.05024902 12.80343384 38.05024902 12.80343384 36.69848633 12.74511719 C35.58634766 12.70201416 34.47420898 12.65891113 33.32836914 12.61450195 C29.78086914 12.47012695 26.23336914 12.32575195 22.57836914 12.17700195 C22.57836914 21.41700195 22.57836914 30.65700195 22.57836914 40.17700195 C24.92961914 40.19762695 27.28086914 40.21825195 29.70336914 40.23950195 C30.43185059 40.24860596 31.16033203 40.25770996 31.91088867 40.26708984 C35.91251058 40.2839125 39.65507503 39.95310531 43.57836914 39.17700195 C43.80524414 38.06325195 44.03211914 36.94950195 44.26586914 35.80200195 C45.57836914 32.17700195 45.57836914 32.17700195 48.20336914 30.73950195 C48.98711914 30.55387695 49.77086914 30.36825195 50.57836914 30.17700195 C52.92751657 31.84413884 54.34940482 33.3175314 55.10180664 36.1418457 C56.01579501 43.56491344 57.00870609 54.96487304 53.18774414 61.5871582 C51.57836914 63.17700195 51.57836914 63.17700195 49.07836914 63.73950195 C46.57836914 63.17700195 46.57836914 63.17700195 44.95336914 60.92700195 C44.14422623 59.30871613 43.34441203 57.68560169 42.56665039 56.05200195 C39.34706345 53.01584924 35.65547469 53.50080881 31.39086914 53.42700195 C28.48274414 53.34450195 25.57461914 53.26200195 22.57836914 53.17700195 C22.57836914 63.07700195 22.57836914 72.97700195 22.57836914 83.17700195 C38.43773917 84.06321605 38.43773917 84.06321605 53.32836914 79.61450195 C56.01894469 76.69971177 58.07457618 73.57506509 60.14868164 70.20043945 C61.57836914 68.17700195 61.57836914 68.17700195 64.57836914 66.17700195 C69.32192266 68.48796392 69.32192266 68.48796392 70.35180664 71.25512695 C70.66713399 75.3217624 69.76059191 78.81118999 68.76586914 82.73950195 C68.58733398 83.49424805 68.40879883 84.24899414 68.22485352 85.02661133 C67.30849906 88.7813489 66.33697431 91.65979162 64.57836914 95.17700195 C40.81836914 95.17700195 17.05836914 95.17700195 -7.42163086 95.17700195 C-8.77602754 92.4682086 -8.48664537 90.16766928 -8.42163086 87.17700195 C-7.85573242 86.92305664 -7.28983398 86.66911133 -6.70678711 86.4074707 C-5.97331055 86.06329102 -5.23983398 85.71911133 -4.48413086 85.36450195 C-3.75323242 85.02805664 -3.02233398 84.69161133 -2.26928711 84.3449707 C-0.09133597 83.24100061 -0.09133597 83.24100061 0.57836914 80.17700195 C0.67264522 78.0920981 0.70630589 76.0042701 0.70776367 73.91723633 C0.71091583 72.62579712 0.71406799 71.33435791 0.71731567 70.00378418 C0.71552578 68.59277309 0.7134748 67.18176231 0.71118164 65.77075195 C0.71185526 64.32491032 0.71282577 62.87906879 0.71408081 61.43322754 C0.71555506 58.40363486 0.71341197 55.37407167 0.70874023 52.34448242 C0.7030431 48.46056521 0.70632356 44.5767171 0.7123127 40.69280243 C0.71592566 37.70741251 0.71477634 34.72203898 0.71218491 31.73664856 C0.71151767 30.3045094 0.71233696 28.87236875 0.71466446 27.44023132 C0.71720296 25.43907703 0.7126481 23.43791752 0.70776367 21.43676758 C0.70696808 20.29776001 0.70617249 19.15875244 0.70535278 17.98522949 C0.70271909 15.09496715 0.70271909 15.09496715 -0.42163086 12.17700195 C-2.73267904 11.12652551 -5.06746736 10.12692757 -7.42163086 9.17700195 C-8.08163086 8.51700195 -8.74163086 7.85700195 -9.42163086 7.17700195 C-9.17163086 4.11450195 -9.17163086 4.11450195 -8.42163086 1.17700195 C-5.58455265 -0.24153715 -3.17232346 0.0261435 0 0 Z " fill="#CCC4B3" transform="translate(735.421630859375,527.822998046875)"/>
<path d="M0 0 C1.96718994 -0.01441132 1.96718994 -0.01441132 3.97412109 -0.02911377 C5.4072248 -0.03396063 6.84033051 -0.03823973 8.2734375 -0.04199219 C9.74169924 -0.04774471 11.20996096 -0.05350243 12.67822266 -0.05926514 C15.75488637 -0.06976468 18.83152402 -0.07561472 21.90820312 -0.07910156 C25.85278114 -0.0845954 29.79701555 -0.10864639 33.7414856 -0.13707352 C36.77320368 -0.15568133 39.80483851 -0.16090441 42.83660889 -0.16243744 C44.29109585 -0.16546686 45.74558124 -0.17350517 47.20001221 -0.18662262 C49.23223055 -0.20364834 51.26459066 -0.19996311 53.296875 -0.1953125 C54.45364746 -0.19895813 55.61041992 -0.20260376 56.80224609 -0.20635986 C59.6484375 0.16113281 59.6484375 0.16113281 61.47509766 1.53106689 C65.38870223 6.96805385 65.75731358 14.64671379 65.6484375 21.16113281 C64.87890625 23.46972656 64.87890625 23.46972656 63.6484375 25.16113281 C60.2109375 26.09863281 60.2109375 26.09863281 56.6484375 26.16113281 C54.09291498 24.17210543 52.83641937 21.86688777 51.4609375 18.97363281 C51.11675781 18.25820313 50.77257812 17.54277344 50.41796875 16.80566406 C50.03705078 15.99162109 50.03705078 15.99162109 49.6484375 15.16113281 C48.9884375 15.16113281 48.3284375 15.16113281 47.6484375 15.16113281 C47.6484375 14.50113281 47.6484375 13.84113281 47.6484375 13.16113281 C34.7784375 12.66613281 34.7784375 12.66613281 21.6484375 12.16113281 C21.6484375 21.73113281 21.6484375 31.30113281 21.6484375 41.16113281 C25.9796875 41.03738281 25.9796875 41.03738281 30.3984375 40.91113281 C31.30174805 40.8953418 32.20505859 40.87955078 33.13574219 40.86328125 C37.9844757 40.66131656 37.9844757 40.66131656 42.13671875 38.28613281 C43.74688241 36.12490705 43.74688241 36.12490705 45.0859375 33.41113281 C45.859375 32.29738281 45.859375 32.29738281 46.6484375 31.16113281 C49.3359375 30.84863281 49.3359375 30.84863281 51.6484375 31.16113281 C54.08196895 36.56709668 53.98005453 41.31896982 53.9609375 47.16113281 C53.97705078 48.14597656 53.99316406 49.13082031 54.00976562 50.14550781 C54.01577446 59.03858835 54.01577446 59.03858835 50.6484375 63.16113281 C47.8359375 63.03613281 47.8359375 63.03613281 44.6484375 62.16113281 C42.7734375 59.09863281 42.7734375 59.09863281 41.6484375 56.16113281 C40.9884375 56.16113281 40.3284375 56.16113281 39.6484375 56.16113281 C39.3184375 55.50113281 38.9884375 54.84113281 38.6484375 54.16113281 C33.0384375 53.83113281 27.4284375 53.50113281 21.6484375 53.16113281 C21.78889094 57.59886376 21.93555534 62.03623688 22.0859375 66.47363281 C22.12525391 67.73626953 22.16457031 68.99890625 22.20507812 70.29980469 C22.24697266 71.50830078 22.28886719 72.71679688 22.33203125 73.96191406 C22.38701782 75.6350769 22.38701782 75.6350769 22.44311523 77.34204102 C22.53774959 80.23986852 22.53774959 80.23986852 23.6484375 83.16113281 C26.79408796 83.24958297 29.93941125 83.30200116 33.0859375 83.34863281 C33.96443359 83.37376953 34.84292969 83.39890625 35.74804688 83.42480469 C41.73504112 83.49108138 47.31267382 83.10284618 52.6484375 80.16113281 C55.16158759 77.35710977 55.16158759 77.35710977 56.8359375 74.03613281 C58.62890625 70.77832031 58.62890625 70.77832031 60.6484375 68.16113281 C63.88671875 67.29394531 63.88671875 67.29394531 66.6484375 67.16113281 C68.2109375 68.59863281 68.2109375 68.59863281 69.6484375 71.16113281 C69.54229765 77.74180378 68.39551458 90.41405573 63.6484375 95.16113281 C61.45048184 95.26073361 59.24928304 95.28913038 57.04907227 95.29052734 C56.35963531 95.29227966 55.67019836 95.29403198 54.95986938 95.2958374 C52.66983559 95.30025595 50.3798784 95.29731761 48.08984375 95.29394531 C46.50422653 95.29461843 44.91860942 95.29558852 43.33299255 95.29684448 C40.0047813 95.29832152 36.67659682 95.296167 33.34838867 95.29150391 C29.07645055 95.28581124 24.80457531 95.28908264 20.5326395 95.29507637 C17.25648015 95.29868577 13.98033575 95.29754156 10.70417595 95.29494858 C9.12886485 95.29428012 7.5535524 95.29510491 5.97824287 95.29742813 C3.77785762 95.29996035 1.57757486 95.29610579 -0.62280273 95.29052734 C-1.87665268 95.28973175 -3.13050262 95.28893616 -4.42234802 95.28811646 C-7.3515625 95.16113281 -7.3515625 95.16113281 -9.3515625 94.16113281 C-9.3515625 91.85113281 -9.3515625 89.54113281 -9.3515625 87.16113281 C-6.3815625 86.17113281 -3.4115625 85.18113281 -0.3515625 84.16113281 C-0.3515625 60.07113281 -0.3515625 35.98113281 -0.3515625 11.16113281 C-2.9915625 10.50113281 -5.6315625 9.84113281 -8.3515625 9.16113281 C-9.0115625 8.83113281 -9.6715625 8.50113281 -10.3515625 8.16113281 C-10.0215625 5.85113281 -9.6915625 3.54113281 -9.3515625 1.16113281 C-6.02257684 0.05147093 -3.50762777 0.02070424 0 0 Z " fill="#CBC3B2" transform="translate(824.3515625,527.8388671875)"/>
<path d="M0 0 C1.96730324 -0.01441132 1.96730324 -0.01441132 3.97434998 -0.02911377 C5.4126671 -0.03396098 6.85098624 -0.03824 8.28930664 -0.04199219 C9.75899763 -0.047743 11.22868858 -0.05350075 12.69837952 -0.05926514 C15.78101959 -0.0697747 18.86363359 -0.07561786 21.94628906 -0.07910156 C25.89874287 -0.08459066 29.85085293 -0.10862735 33.80319881 -0.13707352 C36.8392081 -0.15568382 39.87513424 -0.16090459 42.91119576 -0.16243744 C44.36847376 -0.16546743 45.82575019 -0.17350766 47.28297234 -0.18662262 C49.32008954 -0.20364996 51.35734819 -0.19996287 53.39453125 -0.1953125 C54.55431992 -0.19895813 55.71410858 -0.20260376 56.90904236 -0.20635986 C59.76196289 0.16113281 59.76196289 0.16113281 61.61427307 1.55255127 C65.6125533 7.1564694 65.82220683 17.59446069 64.76196289 24.16113281 C61.32675809 26.45126935 59.77663189 26.33956255 55.76196289 26.16113281 C55.43583008 25.53464844 55.10969727 24.90816406 54.77368164 24.26269531 C54.33668945 23.44542969 53.89969727 22.62816406 53.44946289 21.78613281 C53.02020508 20.97402344 52.59094727 20.16191406 52.14868164 19.32519531 C50.79417565 16.89279238 50.79417565 16.89279238 47.76196289 15.16113281 C46.77196289 14.50113281 45.78196289 13.84113281 44.76196289 13.16113281 C42.3448281 12.79474691 42.3448281 12.79474691 39.65649414 12.74707031 C38.7706665 12.71145996 37.88483887 12.67584961 36.97216797 12.63916016 C35.29030396 12.58816162 35.29030396 12.58816162 33.57446289 12.53613281 C30.00633789 12.41238281 26.43821289 12.28863281 22.76196289 12.16113281 C22.76196289 21.73113281 22.76196289 31.30113281 22.76196289 41.16113281 C30.02196289 40.83113281 37.28196289 40.50113281 44.76196289 40.16113281 C45.42196289 38.18113281 46.08196289 36.20113281 46.76196289 34.16113281 C47.42196289 33.17113281 48.08196289 32.18113281 48.76196289 31.16113281 C51.26196289 30.84863281 51.26196289 30.84863281 53.76196289 31.16113281 C57.0095139 34.40868382 56.05795512 38.31577366 56.08422852 42.73925781 C56.07939453 44.61871094 56.07939453 44.61871094 56.07446289 46.53613281 C56.09057617 47.78136719 56.10668945 49.02660156 56.12329102 50.30957031 C56.12393555 51.50582031 56.12458008 52.70207031 56.12524414 53.93457031 C56.1282251 55.0320459 56.13120605 56.12952148 56.13427734 57.26025391 C55.72428504 60.45469884 54.91169407 61.81706963 52.76196289 64.16113281 C50.07446289 64.16113281 50.07446289 64.16113281 46.76196289 63.16113281 C45.23171187 61.18880928 44.08800411 59.18719152 42.93774414 56.97363281 C41.8167307 54.83283976 41.8167307 54.83283976 38.76196289 54.16113281 C36.02906996 53.93315719 33.31154085 53.74445094 30.57446289 53.59863281 C29.45007813 53.53385742 29.45007813 53.53385742 28.30297852 53.46777344 C26.45617914 53.36190596 24.60909455 53.26103522 22.76196289 53.16113281 C24.08196289 53.82113281 25.40196289 54.48113281 26.76196289 55.16113281 C24.78196289 55.65613281 24.78196289 55.65613281 22.76196289 56.16113281 C22.9013897 59.72391371 23.04963367 63.28627542 23.19946289 66.84863281 C23.2387793 67.85603516 23.2780957 68.8634375 23.31860352 69.90136719 C23.36049805 70.87783203 23.40239258 71.85429688 23.44555664 72.86035156 C23.50054321 74.20359497 23.50054321 74.20359497 23.55664062 75.57397461 C23.76460421 78.1944147 24.0752874 80.62206253 24.76196289 83.16113281 C26.7914908 84.48066311 26.7914908 84.48066311 29.26196289 85.22363281 C31.73071289 86.07128906 31.73071289 86.07128906 33.76196289 87.16113281 C34.66821289 89.03222656 34.66821289 89.03222656 34.76196289 91.16113281 C34.13223137 92.51230283 33.46902641 93.84877486 32.76196289 95.16113281 C27.24439813 95.21048491 21.72696118 95.24682943 16.20922852 95.27099609 C14.33127607 95.28106816 12.45333936 95.29472643 10.57543945 95.31201172 C7.87976199 95.33620735 5.18429143 95.34760364 2.48852539 95.35644531 C1.64577057 95.36676788 0.80301575 95.37709045 -0.0652771 95.38772583 C-2.12424958 95.38812425 -4.18271646 95.28370869 -6.23803711 95.16113281 C-8.23803711 93.16113281 -8.23803711 93.16113281 -8.36303711 90.03613281 C-8.32178711 89.08738281 -8.28053711 88.13863281 -8.23803711 87.16113281 C-5.26803711 86.17113281 -2.29803711 85.18113281 0.76196289 84.16113281 C0.76196289 60.40113281 0.76196289 36.64113281 0.76196289 12.16113281 C-3.69303711 10.18113281 -3.69303711 10.18113281 -8.23803711 8.16113281 C-9.23803711 4.16113281 -9.23803711 4.16113281 -8.23803711 1.16113281 C-5.44312075 -0.23632536 -3.12676487 0.01842078 0 0 Z " fill="#CCC4B3" transform="translate(567.238037109375,527.8388671875)"/>
<path d="M0 0 C1.29136368 -0.00938095 2.58272736 -0.0187619 3.91322327 -0.02842712 C5.31902734 -0.01794991 6.72482502 -0.00658105 8.13061523 0.00561523 C9.57502821 0.00546023 11.0194416 0.00397102 12.46385193 0.00120544 C15.48764482 -0.00017784 18.51096297 0.01236835 21.53466797 0.03515625 C25.41092842 0.06356682 29.28640173 0.06079607 33.16272068 0.04806614 C36.14388253 0.04111293 39.1248623 0.04889357 42.1060009 0.06132317 C43.53534179 0.06583941 44.96470221 0.06617294 46.39404488 0.06225777 C48.3903335 0.05934877 50.38661852 0.07800104 52.3828125 0.09765625 C53.51880386 0.10305923 54.65479523 0.10846222 55.82521057 0.11402893 C58.62670898 0.50170898 58.62670898 0.50170898 60.46910095 1.8167572 C62.38076263 4.59926878 62.47077469 7.504535 62.87670898 10.81420898 C63.04686523 12.1097168 63.21702148 13.40522461 63.39233398 14.73999023 C63.6566492 18.98224946 63.70334099 22.74509888 61.43920898 26.43920898 C59.62670898 27.50170898 59.62670898 27.50170898 56.62670898 27.50170898 C53.62670898 26.50170898 53.62670898 26.50170898 52.00170898 24.31420898 C51.54795898 23.38608398 51.09420898 22.45795898 50.62670898 21.50170898 C47.75659044 16.90486421 47.75659044 16.90486421 43.62670898 13.50170898 C41.11168722 13.13474717 41.11168722 13.13474717 38.30249023 13.08764648 C37.37605713 13.05203613 36.44962402 13.01642578 35.49511719 12.97973633 C34.32166748 12.9457373 33.14821777 12.91173828 31.93920898 12.87670898 C26.33952148 12.69108398 26.33952148 12.69108398 20.62670898 12.50170898 C21.12170898 26.85670898 21.12170898 26.85670898 21.62670898 41.50170898 C31.52670898 41.00670898 31.52670898 41.00670898 41.62670898 40.50170898 C42.28670898 38.52170898 42.94670898 36.54170898 43.62670898 34.50170898 C45.43920898 32.50170898 45.43920898 32.50170898 47.62670898 31.50170898 C50.26342773 32.43920898 50.26342773 32.43920898 52.62670898 33.50170898 C52.67610013 37.5950955 52.71242399 41.68836697 52.73657227 45.78198242 C52.74663776 47.1749168 52.76029132 48.56783001 52.77758789 49.96069336 C52.80181119 51.96125258 52.81211712 53.96196513 52.82202148 55.96264648 C52.83773193 57.76934814 52.83773193 57.76934814 52.85375977 59.61254883 C52.62670898 62.50170898 52.62670898 62.50170898 50.62670898 64.50170898 C47.50170898 64.62670898 47.50170898 64.62670898 44.62670898 64.50170898 C43.30670898 61.86170898 41.98670898 59.22170898 40.62670898 56.50170898 C39.63670898 56.50170898 38.64670898 56.50170898 37.62670898 56.50170898 C36.96670898 56.50170898 36.30670898 56.50170898 35.62670898 56.50170898 C35.62670898 55.51170898 35.62670898 54.52170898 35.62670898 53.50170898 C30.67670898 53.50170898 25.72670898 53.50170898 20.62670898 53.50170898 C20.95670898 54.49170898 21.28670898 55.48170898 21.62670898 56.50170898 C21.71008939 58.63965423 21.73404645 60.78012908 21.72436523 62.91967773 C21.72114258 64.17329102 21.71791992 65.4269043 21.71459961 66.71850586 C21.70203125 68.68400391 21.70203125 68.68400391 21.68920898 70.68920898 C21.68419216 72.0244938 21.67962957 73.3597804 21.67553711 74.69506836 C21.66373593 77.96399371 21.64727196 81.23282889 21.62670898 84.50170898 C22.90545898 84.76983398 24.18420898 85.03795898 25.50170898 85.31420898 C29.12346754 86.07360997 29.42722767 86.20248701 31.62670898 89.50170898 C31.37670898 92.12670898 31.37670898 92.12670898 30.62670898 94.50170898 C27.40067353 96.11472671 23.87960861 95.62224497 20.33764648 95.59936523 C19.11001083 95.59724281 19.11001083 95.59724281 17.85757446 95.59507751 C15.23891574 95.58947188 12.62034195 95.57691847 10.00170898 95.56420898 C8.22827272 95.55919471 6.45483511 95.55463168 4.68139648 95.55053711 C0.32980117 95.53950062 -4.02173051 95.52223223 -8.37329102 95.50170898 C-9.49829102 92.68920898 -9.49829102 92.68920898 -10.37329102 89.50170898 C-8.37329102 86.50170898 -8.37329102 86.50170898 -4.81079102 85.12670898 C-3.67641602 84.59045898 -2.54204102 84.05420898 -1.37329102 83.50170898 C-0.19744249 79.81765609 -0.2467323 76.1494862 -0.24389648 72.30615234 C-0.24074432 71.07815414 -0.23759216 69.85015594 -0.23434448 68.58494568 C-0.23636871 67.26712601 -0.23839294 65.94930634 -0.24047852 64.59155273 C-0.23980436 63.21822594 -0.2388334 61.84489926 -0.23757935 60.47157288 C-0.23610813 57.5993638 -0.23823873 54.72718591 -0.24291992 51.85498047 C-0.24862226 48.17748253 -0.24533138 44.5000575 -0.23934746 40.82256222 C-0.23573089 37.9889725 -0.23688539 35.15540001 -0.23947525 32.32180977 C-0.24046444 30.30771461 -0.23743348 28.29361878 -0.23434448 26.27952576 C-0.23907272 24.4422567 -0.23907272 24.4422567 -0.24389648 22.56787109 C-0.24469208 21.49041122 -0.24548767 20.41295135 -0.24630737 19.30284119 C-0.35783696 16.84261011 -0.53816716 14.81351255 -1.37329102 12.50170898 C-3.20077073 11.55149132 -3.20077073 11.55149132 -5.37329102 11.06420898 C-9.22582379 9.78927008 -9.22582379 9.78927008 -10.62329102 7.06420898 C-10.37329102 4.50170898 -10.37329102 4.50170898 -8.7559967 2.37290955 C-5.66330305 -0.05586297 -3.90619863 0.00057098 0 0 Z " fill="#CCC4B3" transform="translate(652.373291015625,527.498291015625)"/>
<path d="M0 0 C3.50369206 5.4170558 3.35278542 13.09322811 2.7890625 19.3359375 C2.09065367 22.45901095 1.3095691 23.79633612 -1.375 25.5625 C-4.49692803 26.08282134 -5.38335441 25.6869791 -8 24 C-9.08984375 22.265625 -9.08984375 22.265625 -9.9375 20.25 C-12.43709927 14.93231971 -15.01720214 10.58556437 -20.625 8.125 C-26.75590665 6.17794458 -33.77741965 5.81994552 -39.8125 8.25 C-40.864375 8.8275 -41.91625 9.405 -43 10 C-44.010625 10.515625 -45.02125 11.03125 -46.0625 11.5625 C-53.00133184 17.32025408 -56.36776187 25.54223294 -57.23486328 34.39892578 C-57.96578504 47.91442893 -57.39998636 59.63150692 -48.625 70.625 C-42.70212807 76.6364619 -36.56782934 77.66029463 -28.35546875 78.1328125 C-20.83983467 77.83533688 -13.81773321 74.70959355 -8 70 C-7.15069741 68.92914022 -6.31759069 67.84526299 -5.5 66.75 C-3 64 -3 64 0.125 63.375 C3 64 3 64 4.9375 65.5625 C6.54485473 69.24996084 6.15696229 71.14345902 5 75 C-0.92377715 84.21865912 -10.89548571 89.01183976 -21.29296875 91.5625 C-35.07284457 93.78955064 -49.14698274 91.46662107 -61 84 C-71.81784486 76.18908899 -78.67248283 65.13876557 -81 52 C-82.70104062 34.81092867 -78.83120251 22.58190493 -68.33203125 8.8125 C-60.48797514 -0.05318814 -47.92875681 -5.67974558 -36.28125 -6.890625 C-24.45786269 -7.28473791 -10.2161049 -6.72112164 0 0 Z " fill="#CDC5B4" transform="translate(439,533)"/>
<path d="M0 0 C0.76600525 -0.00832352 1.5320105 -0.01664703 2.32122803 -0.02522278 C4.86076902 -0.04937609 7.4000535 -0.05810087 9.93969727 -0.06469727 C11.70085225 -0.07365889 13.46200643 -0.08278064 15.22315979 -0.09205627 C18.91783501 -0.10856286 22.61241943 -0.11624953 26.30712891 -0.11914062 C31.04673985 -0.12452909 35.78550035 -0.1622205 40.52487087 -0.20788479 C44.16310256 -0.23759268 47.80112782 -0.24486279 51.43947029 -0.24586678 C53.18704185 -0.25008088 54.93461337 -0.26256268 56.68206596 -0.28338432 C59.1246221 -0.31017318 61.56518564 -0.30551254 64.0078125 -0.29296875 C64.73259293 -0.30780304 65.45737335 -0.32263733 66.20411682 -0.33792114 C68.22215271 -0.30833435 68.22215271 -0.30833435 71.56860352 0.30639648 C73.91637501 3.21692755 74.929871 5.62625567 75.15063477 9.33764648 C75.19510742 10.0659668 75.23958008 10.79428711 75.28540039 11.54467773 C75.33277344 12.66422852 75.33277344 12.66422852 75.38110352 13.80639648 C75.45748047 14.92594727 75.45748047 14.92594727 75.53540039 16.06811523 C75.75482294 20.27061494 75.7067634 23.53572263 73.56860352 27.30639648 C71.25610352 28.43139648 71.25610352 28.43139648 68.56860352 28.30639648 C65.37503112 25.81385218 63.3744249 23.12080447 61.44360352 19.61889648 C59.80043425 16.13533415 59.80043425 16.13533415 56.56860352 14.30639648 C54.38965443 14.03715055 52.19860346 13.85903335 50.00610352 13.74389648 C43.76134444 13.40276695 43.76134444 13.40276695 41.56860352 12.30639648 C41.54288022 19.36408697 41.52558325 26.42176502 41.51367188 33.47949219 C41.50869703 35.87174939 41.50191477 38.26400363 41.49316406 40.65625 C41.44239658 54.90996706 41.60615239 69.08230197 42.56860352 83.30639648 C43.12290039 83.57194336 43.67719727 83.83749023 44.24829102 84.11108398 C44.97274414 84.46428711 45.69719727 84.81749023 46.44360352 85.18139648 C47.16290039 85.52944336 47.88219727 85.87749023 48.62329102 86.23608398 C50.56860352 87.30639648 50.56860352 87.30639648 52.56860352 89.30639648 C52.19360352 92.43139648 52.19360352 92.43139648 51.56860352 95.30639648 C47.93087652 96.51897215 44.55058576 96.50671323 40.76000977 96.54467773 C39.99687973 96.55274948 39.23374969 96.56082123 38.44749451 96.56913757 C36.83448545 96.58295515 35.22144745 96.5936877 33.60839844 96.6015625 C31.14340037 96.61881044 28.67973209 96.66271845 26.21508789 96.70678711 C24.64673836 96.7169117 23.07837745 96.72542853 21.51000977 96.73217773 C20.40672081 96.75843987 20.40672081 96.75843987 19.28114319 96.78523254 C15.67752719 96.76996977 13.91403854 96.5868323 11.07226562 94.27978516 C10.32795288 93.30295776 10.32795288 93.30295776 9.56860352 92.30639648 C10.13110352 89.99389648 10.13110352 89.99389648 11.56860352 87.30639648 C15.13110352 85.61889648 15.13110352 85.61889648 18.56860352 84.30639648 C20.00204804 81.43950744 19.73314411 78.94963571 19.77392578 75.74536133 C19.78382538 75.07207291 19.79372498 74.39878448 19.80392456 73.70509338 C19.83555467 71.47587623 19.86030285 69.24663775 19.88500977 67.01733398 C19.905578 65.4731897 19.92657444 63.92905107 19.94798279 62.38491821 C20.00321701 58.31775482 20.0526203 54.25054049 20.10083008 50.18328857 C20.15103526 46.03417419 20.20672645 41.8851339 20.26196289 37.73608398 C20.36956097 29.59291743 20.47100225 21.44968896 20.56860352 13.30639648 C18.31832023 13.44779129 16.06838145 13.59467652 13.81860352 13.74389648 C12.56563477 13.82510742 11.31266602 13.90631836 10.02172852 13.98999023 C6.21600875 14.3155811 6.21600875 14.3155811 2.56860352 15.30639648 C1.53772792 17.29075693 1.53772792 17.29075693 1.00610352 19.68139648 C0.1175274 23.07012775 -0.63981905 25.09958839 -3.43139648 27.30639648 C-5.93139648 27.74389648 -5.93139648 27.74389648 -8.43139648 27.30639648 C-10.61033672 25.08065323 -11.3764555 23.71461393 -11.79467773 20.60717773 C-11.44466826 0.01046631 -11.44466826 0.01046631 0 0 Z " fill="#CDC4B4" transform="translate(466.431396484375,403.693603515625)"/>
<path d="M0 0 C2.81385206 -0.29167512 5.40426945 -0.39597908 8.21875 -0.36328125 C9.03243042 -0.36377975 9.84611084 -0.36427826 10.68444824 -0.36479187 C12.40603068 -0.36244974 14.12761643 -0.35271296 15.84912109 -0.33618164 C18.48956813 -0.31259319 21.1290057 -0.31561877 23.76953125 -0.32226562 C25.44011021 -0.31668889 27.1106849 -0.30957903 28.78125 -0.30078125 C29.57398315 -0.30169266 30.36671631 -0.30260406 31.18347168 -0.30354309 C36.76897653 -0.23102347 36.76897653 -0.23102347 39 2 C39.125 5.125 39.125 5.125 39 8 C36.03 9.32 33.06 10.64 30 12 C30 35.76 30 59.52 30 84 C32.97 85.32 35.94 86.64 39 88 C39.1875 90.875 39.1875 90.875 39 94 C35.30005442 96.46663039 32.43918703 96.30605136 28.15625 96.30078125 C27.39074829 96.30506638 26.62524658 96.3093515 25.83654785 96.31376648 C24.21932972 96.31950517 22.60208577 96.32001342 20.98486328 96.31567383 C18.50899347 96.31251149 16.03431603 96.33598531 13.55859375 96.36132812 C11.98698068 96.36360092 10.41536438 96.36430471 8.84375 96.36328125 C8.10306274 96.372491 7.36237549 96.38170074 6.59924316 96.39118958 C1.50421802 96.34524997 1.50421802 96.34524997 -0.97851562 94.64526367 C-2.38619499 92.37797131 -2.21179961 90.6121952 -2 88 C3.625 85 3.625 85 7 85 C7.02313952 75.64691135 7.04092333 66.29383251 7.05181217 56.94072151 C7.05703746 52.5980033 7.06412873 48.25530462 7.07543945 43.91259766 C7.08628085 39.72401613 7.09227951 35.53545344 7.09487724 31.34685898 C7.09672922 29.74642515 7.10034552 28.1459924 7.10573006 26.54556656 C7.1129571 24.30916339 7.11399023 22.07283869 7.11352539 19.83642578 C7.115746 18.56179474 7.11796661 17.2871637 7.12025452 15.97390747 C7.20678562 13.07131256 7.20678562 13.07131256 6 11 C3.6859378 10.26924352 1.35171131 9.59861742 -1 9 C-1.625 6.1875 -1.625 6.1875 -2 3 C-1.34 2.01 -0.68 1.02 0 0 Z " fill="#CDC4B4" transform="translate(664,404)"/>
<path d="M0 0 C2 2 2 2 3 8 C14.22 8 25.44 8 37 8 C37 8.33 37 8.66 37 9 C32.07040878 9.04942899 27.14096175 9.08573318 22.21118164 9.10986328 C20.53407275 9.11992237 18.85698139 9.13357122 17.17993164 9.15087891 C14.76964998 9.17513152 12.35960014 9.1864839 9.94921875 9.1953125 C8.82407112 9.21079636 8.82407112 9.21079636 7.67619324 9.22659302 C3.89699221 9.227408 2.22585601 9.15057067 -1 7 C-1.25 3.9375 -1.25 3.9375 -1 1 C-0.67 0.67 -0.34 0.34 0 0 Z " fill="#D4CAB9" transform="translate(612,491)"/>
<path d="M0 0 C19.305 0.495 19.305 0.495 39 1 C39 1.33 39 1.66 39 2 C20.19 2.495 20.19 2.495 1 3 C0.67 2.01 0.34 1.02 0 0 Z " fill="#D6CCBB" transform="translate(560,620)"/>
<path d="M0 0 C0.33 0 0.66 0 1 0 C1 10.89 1 21.78 1 33 C0.01 31.68 -0.98 30.36 -2 29 C-1.70727539 27.11621094 -1.70727539 27.11621094 -1 25 C-0.85431597 23.04946236 -0.75340533 21.09534935 -0.68359375 19.140625 C-0.64169922 18.02558594 -0.59980469 16.91054688 -0.55664062 15.76171875 C-0.51732422 14.60285156 -0.47800781 13.44398438 -0.4375 12.25 C-0.37272461 10.48849609 -0.37272461 10.48849609 -0.30664062 8.69140625 C-0.20065206 5.79438549 -0.09858362 2.89728065 0 0 Z " fill="#D4CBB9" transform="translate(384,419)"/>
<path d="M0 0 C0.33 0.66 0.66 1.32 1 2 C1.66 2.33 2.32 2.66 3 3 C1.61198929 6.35435922 0.11371 8.11290303 -3 10 C-3.99 10 -4.98 10 -6 10 C-5 8 -5 8 -3.5625 6.125 C-2.10652876 4.14487912 -1.03223499 2.22327536 0 0 Z " fill="#D7CFBD" transform="translate(250,579)"/>
<path d="M0 0 C2.64 0.33 5.28 0.66 8 1 C8 1.33 8 1.66 8 2 C5.36 2 2.72 2 0 2 C0 1.34 0 0.68 0 0 Z " fill="#D8D0C0" transform="translate(199,563)"/>
<path d="M0 0 C2.31 0 4.62 0 7 0 C7 0.33 7 0.66 7 1 C4.69 1 2.38 1 0 1 C0 0.67 0 0.34 0 0 Z " fill="#D2C8B8" transform="translate(595,582)"/>
<path d="M0 0 C2.475 0.495 2.475 0.495 5 1 C3.68 1.33 2.36 1.66 1 2 C0.67 1.34 0.34 0.68 0 0 Z " fill="#D9D2C1" transform="translate(273,563)"/>
<path d="M0 0 C1.32 0.33 2.64 0.66 4 1 C2.68 1.33 1.36 1.66 0 2 C0 1.34 0 0.68 0 0 Z " fill="#D9D1C0" transform="translate(266,563)"/>
<path d="M0 0 C1.32 0.33 2.64 0.66 4 1 C2.68 1.33 1.36 1.66 0 2 C0 1.34 0 0.68 0 0 Z " fill="#D9D1C0" transform="translate(215,563)"/>
<path d="M0 0 C2.475 0.495 2.475 0.495 5 1 C3.68 1.33 2.36 1.66 1 2 C0.67 1.34 0.34 0.68 0 0 Z " fill="#D8D1C0" transform="translate(209,563)"/>
<path d="M0 0 C1.65 0 3.3 0 5 0 C5 0.33 5 0.66 5 1 C3.35 1 1.7 1 0 1 C0 0.67 0 0.34 0 0 Z " fill="#D1C9B8" transform="translate(768,582)"/>
<path d="M0 0 C0.99 0 1.98 0 3 0 C3 0.66 3 1.32 3 2 C2.01 2 1.02 2 0 2 C0 1.34 0 0.68 0 0 Z " fill="#D9D1C0" transform="translate(236,563)"/>
<path d="M0 0 C1.98 0.99 1.98 0.99 4 2 C2.68 1.67 1.36 1.34 0 1 C0 0.67 0 0.34 0 0 Z " fill="#D9D1C1" transform="translate(241,563)"/>
<path d="M0 0 C0.99 0 1.98 0 3 0 C3 0.66 3 1.32 3 2 C2.01 1.67 1.02 1.34 0 1 C0 0.67 0 0.34 0 0 Z " fill="#DAD1C0" transform="translate(229,563)"/>
<path d="M0 0 C1.65 0 3.3 0 5 0 C5 0.33 5 0.66 5 1 C3.35 1 1.7 1 0 1 C0 0.67 0 0.34 0 0 Z " fill="#D2C9BA" transform="translate(400,501)"/>
<path d="M0 0 C1 4 1 4 1 4 Z " fill="#CCC4B2" transform="translate(847,594)"/>
<path d="M0 0 C0.99 0 1.98 0 3 0 C2.67 0.66 2.34 1.32 2 2 C1.34 1.34 0.68 0.68 0 0 Z " fill="#CFC6B7" transform="translate(776,541)"/>
<path d="M0 0 C4 1 4 1 4 1 Z " fill="#D2CAB8" transform="translate(423,501)"/>
<path d="M0 0 C4 1 4 1 4 1 Z " fill="#D4CAB9" transform="translate(391,501)"/>
<path d="M0 0 C4 1 4 1 4 1 Z " fill="#D4CAB9" transform="translate(383,501)"/>
<path d="M0 0 C1 4 1 4 1 4 Z " fill="#D6CEBD" transform="translate(264,369)"/>
<path d="" fill="#CEC3B4" transform="translate(0,0)"/>
<path d="M0 0 C3 1 3 1 3 1 Z " fill="#CDC7B5" transform="translate(858,582)"/>
<path d="M0 0 C3 1 3 1 3 1 Z " fill="#D9CFBF" transform="translate(219,564)"/>
<path d="M0 0 C3 1 3 1 3 1 Z " fill="#D9D1BF" transform="translate(187,564)"/>
<path d="M0 0 C0.66 0 1.32 0 2 0 C1.67 0.66 1.34 1.32 1 2 C0.67 1.34 0.34 0.68 0 0 Z " fill="#D9D0C1" transform="translate(270,563)"/>
<path d="M0 0 C0.33 0.66 0.66 1.32 1 2 C0.34 1.67 -0.32 1.34 -1 1 C-0.67 0.67 -0.34 0.34 0 0 Z " fill="#DAD1C1" transform="translate(261,563)"/>
<path d="M0 0 C0.66 0 1.32 0 2 0 C1.67 0.66 1.34 1.32 1 2 C0.67 1.34 0.34 0.68 0 0 Z " fill="#D9CFC0" transform="translate(222,563)"/>
<path d="M0 0 C0.33 0.66 0.66 1.32 1 2 C0.34 1.67 -0.32 1.34 -1 1 C-0.67 0.67 -0.34 0.34 0 0 Z " fill="#D9D0BF" transform="translate(196,563)"/>
<path d="" fill="#D2C9BA" transform="translate(0,0)"/>
<path d="" fill="#CEC6B4" transform="translate(0,0)"/>
<path d="M0 0 C3 1 3 1 3 1 Z " fill="#D0C8B6" transform="translate(780,542)"/>
<path d="M0 0 C0.99 0.495 0.99 0.495 2 1 C1.01 1.495 1.01 1.495 0 2 C0 1.34 0 0.68 0 0 Z " fill="#D0C9B8" transform="translate(696,542)"/>
<path d="" fill="#D2C8B8" transform="translate(0,0)"/>
<path d="M0 0 C0.66 0 1.32 0 2 0 C1.67 0.66 1.34 1.32 1 2 C0.67 1.34 0.34 0.68 0 0 Z " fill="#D2C8B7" transform="translate(595,541)"/>
<path d="M0 0 C3 1 3 1 3 1 Z " fill="#D3C9BA" transform="translate(403,540)"/>
<path d="M0 0 C3 1 3 1 3 1 Z " fill="#D2C9BA" transform="translate(696,501)"/>
<path d="M0 0 C3 1 3 1 3 1 Z " fill="#D3C9B9" transform="translate(407,501)"/>
<path d="M0 0 C2 1 2 1 2 1 Z " fill="#CFC6B7" transform="translate(171,638)"/>
<path d="M0 0 C2 1 2 1 2 1 Z " fill="#D2C7B7" transform="translate(647,611)"/>
<path d="M0 0 C2 1 2 1 2 1 Z " fill="#D0C7B7" transform="translate(502,611)"/>
<path d="M0 0 C2 1 2 1 2 1 Z " fill="#C5BDAC" transform="translate(888,593)"/>
<path d="" fill="#CFC9B8" transform="translate(0,0)"/>
<path d="" fill="#D0C8B7" transform="translate(0,0)"/>
<path d="" fill="#DAD0C0" transform="translate(0,0)"/>
<path d="" fill="#D9D0BF" transform="translate(0,0)"/>
<path d="M0 0 C2 1 2 1 2 1 Z " fill="#D1C9B6" transform="translate(775,583)"/>
<path d="M0 0 C2 1 2 1 2 1 Z " fill="#D8CFC0" transform="translate(235,582)"/>
<path d="M0 0 C2 1 2 1 2 1 Z " fill="#D9CFBE" transform="translate(191,582)"/>
<path d="" fill="#D7D0C0" transform="translate(0,0)"/>
<path d="" fill="#D9D1C1" transform="translate(0,0)"/>
<path d="" fill="#DAD1C2" transform="translate(0,0)"/>
<path d="" fill="#DAD1C0" transform="translate(0,0)"/>
<path d="M0 0 C2 1 2 1 2 1 Z " fill="#D9D2C2" transform="translate(246,563)"/>
<path d="" fill="#D3CABA" transform="translate(0,0)"/>
<path d="" fill="#D1C7B8" transform="translate(0,0)"/>
<path d="M0 0 C2 1 2 1 2 1 Z " fill="#D1C9B7" transform="translate(613,542)"/>
<path d="M0 0 C2 1 2 1 2 1 Z " fill="#D2C8B8" transform="translate(609,541)"/>
<path d="M0 0 C2 1 2 1 2 1 Z " fill="#D1C7B7" transform="translate(600,541)"/>
<path d="M0 0 C2 1 2 1 2 1 Z " fill="#D3CABA" transform="translate(401,541)"/>
<path d="M0 0 C2 1 2 1 2 1 Z " fill="#D2C8B9" transform="translate(505,540)"/>
<path d="M0 0 C2 1 2 1 2 1 Z " fill="#D0C6B6" transform="translate(817,539)"/>
<path d="M0 0 C2 1 2 1 2 1 Z " fill="#D2CABA" transform="translate(416,525)"/>
<path d="M0 0 C2 1 2 1 2 1 Z " fill="#D3CAB9" transform="translate(632,501)"/>
<path d="M0 0 C2 1 2 1 2 1 Z " fill="#D3C8B9" transform="translate(512,501)"/>
<path d="M0 0 C2 1 2 1 2 1 Z " fill="#D2C9B9" transform="translate(506,501)"/>
<path d="M0 0 C2 1 2 1 2 1 Z " fill="#D2C8B8" transform="translate(503,501)"/>
<path d="M0 0 C2 1 2 1 2 1 Z " fill="#D3CAB9" transform="translate(496,501)"/>
<path d="M0 0 C2 1 2 1 2 1 Z " fill="#D3C9B9" transform="translate(416,501)"/>
<path d="" fill="#D6CDBF" transform="translate(0,0)"/>
<path d="" fill="#D2CAB9" transform="translate(0,0)"/>
<path d="" fill="#D3C8B9" transform="translate(0,0)"/>
<path d="" fill="#D4CAB9" transform="translate(0,0)"/>
<path d="" fill="#D4CBBA" transform="translate(0,0)"/>
<path d="" fill="#D1C8B6" transform="translate(0,0)"/>
<path d="" fill="#D2C9BA" transform="translate(0,0)"/>
<path d="" fill="#D4CBBB" transform="translate(0,0)"/>
<path d="" fill="#D3C9B9" transform="translate(0,0)"/>
<path d="" fill="#D5CCBD" transform="translate(0,0)"/>
<path d="M0 0 C2 1 2 1 2 1 Z " fill="#D0C6B6" transform="translate(769,419)"/>
<path d="M0 0 C2 1 2 1 2 1 Z " fill="#CEC6B6" transform="translate(235,345)"/>
<path d="" fill="#7E7E7C" transform="translate(0,0)"/>
<path d="" fill="#7A7A76" transform="translate(0,0)"/>
<path d="" fill="#7C7977" transform="translate(0,0)"/>
<path d="" fill="#A5A097" transform="translate(0,0)"/>
<path d="" fill="#D1C6B7" transform="translate(0,0)"/>
<path d="" fill="#C1BAAD" transform="translate(0,0)"/>
<path d="" fill="#D1C8B7" transform="translate(0,0)"/>
<path d="" fill="#D1C6B9" transform="translate(0,0)"/>
<path d="" fill="#D2C9B7" transform="translate(0,0)"/>
<path d="" fill="#CDC6B6" transform="translate(0,0)"/>
<path d="" fill="#D1C7BB" transform="translate(0,0)"/>
<path d="" fill="#D0C6B6" transform="translate(0,0)"/>
<path d="" fill="#CDC4B5" transform="translate(0,0)"/>
<path d="" fill="#CFC7B7" transform="translate(0,0)"/>
<path d="" fill="#CEC6B6" transform="translate(0,0)"/>
<path d="" fill="#CFC5B8" transform="translate(0,0)"/>
<path d="" fill="#D0C7B7" transform="translate(0,0)"/>
<path d="" fill="#CCC4B4" transform="translate(0,0)"/>
<path d="" fill="#D0C7B6" transform="translate(0,0)"/>
<path d="" fill="#CFC8BA" transform="translate(0,0)"/>
<path d="" fill="#CBC4B4" transform="translate(0,0)"/>
<path d="" fill="#CAC0B0" transform="translate(0,0)"/>
<path d="" fill="#CBC4B4" transform="translate(0,0)"/>
<path d="" fill="#D0C9B8" transform="translate(0,0)"/>
<path d="" fill="#DAD3C1" transform="translate(0,0)"/>
<path d="" fill="#CFC8B7" transform="translate(0,0)"/>
<path d="" fill="#D2CAB9" transform="translate(0,0)"/>
<path d="" fill="#D8CEBE" transform="translate(0,0)"/>
<path d="" fill="#D9D0BF" transform="translate(0,0)"/>
<path d="" fill="#D2C8B6" transform="translate(0,0)"/>
<path d="" fill="#D8D1BF" transform="translate(0,0)"/>
<path d="" fill="#DACFC0" transform="translate(0,0)"/>
<path d="" fill="#D9CFBD" transform="translate(0,0)"/>
<path d="" fill="#D8D1C0" transform="translate(0,0)"/>
<path d="" fill="#CDC3B4" transform="translate(0,0)"/>
<path d="" fill="#CFC6B7" transform="translate(0,0)"/>
<path d="" fill="#CEC5B3" transform="translate(0,0)"/>
<path d="" fill="#CFC6B8" transform="translate(0,0)"/>
<path d="" fill="#D7CEBB" transform="translate(0,0)"/>
<path d="" fill="#D7D1BF" transform="translate(0,0)"/>
<path d="" fill="#CFC7B5" transform="translate(0,0)"/>
<path d="" fill="#DAD1C0" transform="translate(0,0)"/>
<path d="" fill="#D1C9BA" transform="translate(0,0)"/>
<path d="" fill="#CDC5B5" transform="translate(0,0)"/>
<path d="" fill="#D2C7B7" transform="translate(0,0)"/>
<path d="" fill="#DAD0BF" transform="translate(0,0)"/>
<path d="" fill="#D6CFBD" transform="translate(0,0)"/>
<path d="" fill="#CDC5B5" transform="translate(0,0)"/>
<path d="" fill="#CEC6B3" transform="translate(0,0)"/>
<path d="" fill="#D2C9B7" transform="translate(0,0)"/>
<path d="" fill="#CFC5B5" transform="translate(0,0)"/>
<path d="" fill="#D8D1BE" transform="translate(0,0)"/>
<path d="" fill="#D9D3BF" transform="translate(0,0)"/>
<path d="" fill="#D3C9B8" transform="translate(0,0)"/>
<path d="" fill="#D3CABB" transform="translate(0,0)"/>
<path d="" fill="#D7CFBE" transform="translate(0,0)"/>
<path d="" fill="#DBD0C1" transform="translate(0,0)"/>
<path d="" fill="#D0C8B5" transform="translate(0,0)"/>
<path d="" fill="#D0C6B6" transform="translate(0,0)"/>
<path d="" fill="#CEC5B5" transform="translate(0,0)"/>
<path d="" fill="#D1CBB8" transform="translate(0,0)"/>
<path d="" fill="#D2CABB" transform="translate(0,0)"/>
<path d="" fill="#D0C7B7" transform="translate(0,0)"/>
<path d="" fill="#D9CEC1" transform="translate(0,0)"/>
<path d="" fill="#D2C9BB" transform="translate(0,0)"/>
<path d="" fill="#D6CDBE" transform="translate(0,0)"/>
<path d="" fill="#D8D0BF" transform="translate(0,0)"/>
<path d="" fill="#DAD1C1" transform="translate(0,0)"/>
<path d="" fill="#D0C7B8" transform="translate(0,0)"/>
<path d="" fill="#DAD0C0" transform="translate(0,0)"/>
<path d="" fill="#D8D0BF" transform="translate(0,0)"/>
<path d="" fill="#D1CBBC" transform="translate(0,0)"/>
<path d="" fill="#D8D0BE" transform="translate(0,0)"/>
<path d="" fill="#D3CBBB" transform="translate(0,0)"/>
<path d="" fill="#D9D0BE" transform="translate(0,0)"/>
<path d="" fill="#D8CEC0" transform="translate(0,0)"/>
<path d="" fill="#D7D1C1" transform="translate(0,0)"/>
<path d="" fill="#D8CEC1" transform="translate(0,0)"/>
<path d="" fill="#D2CABB" transform="translate(0,0)"/>
<path d="" fill="#D1C6B8" transform="translate(0,0)"/>
<path d="" fill="#CEC8B7" transform="translate(0,0)"/>
<path d="" fill="#D7CFBF" transform="translate(0,0)"/>
<path d="" fill="#D1C9B9" transform="translate(0,0)"/>
<path d="" fill="#CFC5B7" transform="translate(0,0)"/>
<path d="" fill="#D2CAB9" transform="translate(0,0)"/>
<path d="" fill="#D3CBBB" transform="translate(0,0)"/>
<path d="" fill="#CEC6B5" transform="translate(0,0)"/>
<path d="" fill="#CDC5B6" transform="translate(0,0)"/>
<path d="" fill="#D9D0C1" transform="translate(0,0)"/>
<path d="" fill="#DAD0C1" transform="translate(0,0)"/>
<path d="" fill="#D2CABA" transform="translate(0,0)"/>
<path d="" fill="#DBD3C4" transform="translate(0,0)"/>
<path d="" fill="#DCD2C3" transform="translate(0,0)"/>
<path d="" fill="#D8D3C4" transform="translate(0,0)"/>
<path d="" fill="#DAD0C1" transform="translate(0,0)"/>
<path d="" fill="#DAD1C2" transform="translate(0,0)"/>
<path d="" fill="#D0C8B7" transform="translate(0,0)"/>
<path d="" fill="#D8D0C0" transform="translate(0,0)"/>
<path d="" fill="#CFC7B4" transform="translate(0,0)"/>
<path d="" fill="#D4C9BB" transform="translate(0,0)"/>
<path d="" fill="#D2CABA" transform="translate(0,0)"/>
<path d="" fill="#CDC3B2" transform="translate(0,0)"/>
<path d="" fill="#D0C8B7" transform="translate(0,0)"/>
<path d="" fill="#CFCAB9" transform="translate(0,0)"/>
<path d="" fill="#D2C9B6" transform="translate(0,0)"/>
<path d="" fill="#D0C9B7" transform="translate(0,0)"/>
<path d="" fill="#D0C9B6" transform="translate(0,0)"/>
<path d="" fill="#CEC8B9" transform="translate(0,0)"/>
<path d="" fill="#D7CDBE" transform="translate(0,0)"/>
<path d="" fill="#CDC6B5" transform="translate(0,0)"/>
<path d="" fill="#D1C9B9" transform="translate(0,0)"/>
<path d="" fill="#D3CABB" transform="translate(0,0)"/>
<path d="" fill="#D2CABA" transform="translate(0,0)"/>
<path d="" fill="#CDC4B3" transform="translate(0,0)"/>
<path d="" fill="#D2C9BC" transform="translate(0,0)"/>
<path d="" fill="#D2C9B7" transform="translate(0,0)"/>
<path d="" fill="#D2C8B7" transform="translate(0,0)"/>
<path d="" fill="#D1C9B9" transform="translate(0,0)"/>
<path d="" fill="#C1BAA9" transform="translate(0,0)"/>
<path d="" fill="#CEC6B7" transform="translate(0,0)"/>
<path d="" fill="#CDC4B3" transform="translate(0,0)"/>
<path d="" fill="#D0C8B7" transform="translate(0,0)"/>
<path d="" fill="#D1C9B9" transform="translate(0,0)"/>
<path d="" fill="#D3CBB9" transform="translate(0,0)"/>
<path d="" fill="#CCC4B4" transform="translate(0,0)"/>
<path d="" fill="#D1CBBB" transform="translate(0,0)"/>
<path d="" fill="#CCC3B3" transform="translate(0,0)"/>
<path d="" fill="#CDC3B3" transform="translate(0,0)"/>
<path d="" fill="#CDC6B5" transform="translate(0,0)"/>
<path d="" fill="#CFC7B7" transform="translate(0,0)"/>
<path d="" fill="#D2C6B5" transform="translate(0,0)"/>
<path d="" fill="#D1CAB8" transform="translate(0,0)"/>
<path d="" fill="#D1C8B7" transform="translate(0,0)"/>
<path d="" fill="#D3C9BB" transform="translate(0,0)"/>
<path d="" fill="#D5CBB9" transform="translate(0,0)"/>
<path d="" fill="#D2C9B9" transform="translate(0,0)"/>
<path d="" fill="#D1C8B7" transform="translate(0,0)"/>
<path d="" fill="#D3C8B9" transform="translate(0,0)"/>
<path d="" fill="#D5CDBC" transform="translate(0,0)"/>
<path d="" fill="#D6CBBB" transform="translate(0,0)"/>
<path d="" fill="#D0C7B9" transform="translate(0,0)"/>
<path d="" fill="#CEC5B6" transform="translate(0,0)"/>
<path d="" fill="#D6CEBF" transform="translate(0,0)"/>
<path d="" fill="#D3CABC" transform="translate(0,0)"/>
<path d="" fill="#D1C8B9" transform="translate(0,0)"/>
<path d="" fill="#D4C7B9" transform="translate(0,0)"/>
<path d="" fill="#CDC4B5" transform="translate(0,0)"/>
<path d="" fill="#CAC1B1" transform="translate(0,0)"/>
<path d="" fill="#D2C8BA" transform="translate(0,0)"/>
<path d="" fill="#D1CAB8" transform="translate(0,0)"/>
<path d="" fill="#D1CBBE" transform="translate(0,0)"/>
<path d="" fill="#D5CDBE" transform="translate(0,0)"/>
<path d="" fill="#D5CEBE" transform="translate(0,0)"/>
<path d="" fill="#D8CFC0" transform="translate(0,0)"/>
<path d="" fill="#D7CFBF" transform="translate(0,0)"/>
<path d="" fill="#D3CBBD" transform="translate(0,0)"/>
<path d="" fill="#D1C7B6" transform="translate(0,0)"/>
<path d="" fill="#D3C7B9" transform="translate(0,0)"/>
<path d="" fill="#D2C8B6" transform="translate(0,0)"/>
<path d="" fill="#D2C9B5" transform="translate(0,0)"/>
<path d="" fill="#D2C8B8" transform="translate(0,0)"/>
<path d="" fill="#D2C9B9" transform="translate(0,0)"/>
<path d="" fill="#D2CBB9" transform="translate(0,0)"/>
<path d="" fill="#D3C9B7" transform="translate(0,0)"/>
<path d="" fill="#D3C8B9" transform="translate(0,0)"/>
<path d="" fill="#D3C9B9" transform="translate(0,0)"/>
<path d="" fill="#D2C9B9" transform="translate(0,0)"/>
<path d="" fill="#D1C7B8" transform="translate(0,0)"/>
<path d="" fill="#D3C7B8" transform="translate(0,0)"/>
<path d="" fill="#D3C8B7" transform="translate(0,0)"/>
<path d="" fill="#D3CAB7" transform="translate(0,0)"/>
<path d="" fill="#D2CAB9" transform="translate(0,0)"/>
<path d="" fill="#D3CAB9" transform="translate(0,0)"/>
<path d="" fill="#D5CBBA" transform="translate(0,0)"/>
<path d="" fill="#D1C8B7" transform="translate(0,0)"/>
<path d="" fill="#D2C8B7" transform="translate(0,0)"/>
<path d="" fill="#D6CDBE" transform="translate(0,0)"/>
<path d="" fill="#D7CEC0" transform="translate(0,0)"/>
<path d="" fill="#D2CBBB" transform="translate(0,0)"/>
<path d="" fill="#D4CAB9" transform="translate(0,0)"/>
<path d="" fill="#D3CABB" transform="translate(0,0)"/>
<path d="" fill="#D2CABA" transform="translate(0,0)"/>
<path d="" fill="#D7CFBE" transform="translate(0,0)"/>
<path d="" fill="#D3CAB9" transform="translate(0,0)"/>
<path d="" fill="#D3CBBB" transform="translate(0,0)"/>
<path d="" fill="#D6CDBB" transform="translate(0,0)"/>
<path d="" fill="#D2CBBA" transform="translate(0,0)"/>
<path d="" fill="#D3C9B9" transform="translate(0,0)"/>
<path d="" fill="#D4CBBA" transform="translate(0,0)"/>
<path d="" fill="#D0CAB7" transform="translate(0,0)"/>
<path d="" fill="#D2CABA" transform="translate(0,0)"/>
<path d="" fill="#D3C8B8" transform="translate(0,0)"/>
<path d="" fill="#D8CDBB" transform="translate(0,0)"/>
<path d="" fill="#D0C8B7" transform="translate(0,0)"/>
<path d="" fill="#D2CABA" transform="translate(0,0)"/>
<path d="" fill="#D2C9B7" transform="translate(0,0)"/>
<path d="" fill="#D2CBBA" transform="translate(0,0)"/>
<path d="" fill="#D3CABB" transform="translate(0,0)"/>
<path d="" fill="#D3C8B8" transform="translate(0,0)"/>
<path d="" fill="#D3C9BA" transform="translate(0,0)"/>
<path d="" fill="#D3C9B8" transform="translate(0,0)"/>
<path d="" fill="#D0C8B8" transform="translate(0,0)"/>
<path d="" fill="#D2C9B9" transform="translate(0,0)"/>
<path d="" fill="#D0C7B7" transform="translate(0,0)"/>
<path d="" fill="#D2CAB9" transform="translate(0,0)"/>
<path d="" fill="#D3CBBB" transform="translate(0,0)"/>
<path d="" fill="#D2C8BA" transform="translate(0,0)"/>
<path d="" fill="#D2C9B8" transform="translate(0,0)"/>
<path d="" fill="#D2C8B8" transform="translate(0,0)"/>
<path d="" fill="#D7CEBE" transform="translate(0,0)"/>
<path d="" fill="#D1C8B7" transform="translate(0,0)"/>
<path d="" fill="#D2C8B8" transform="translate(0,0)"/>
<path d="" fill="#D2CAB9" transform="translate(0,0)"/>
<path d="" fill="#D0CAB9" transform="translate(0,0)"/>
<path d="" fill="#D0C9B9" transform="translate(0,0)"/>
<path d="" fill="#D6CDBE" transform="translate(0,0)"/>
<path d="" fill="#D6CEBF" transform="translate(0,0)"/>
<path d="" fill="#D3C8B9" transform="translate(0,0)"/>
<path d="" fill="#D1C8B7" transform="translate(0,0)"/>
<path d="" fill="#D1C8B8" transform="translate(0,0)"/>
<path d="" fill="#D1C8B7" transform="translate(0,0)"/>
<path d="" fill="#D2C6B7" transform="translate(0,0)"/>
<path d="" fill="#D3C7B7" transform="translate(0,0)"/>
<path d="" fill="#D3C8B8" transform="translate(0,0)"/>
<path d="" fill="#D3CABA" transform="translate(0,0)"/>
<path d="" fill="#D3C9B9" transform="translate(0,0)"/>
<path d="" fill="#D1CABA" transform="translate(0,0)"/>
<path d="" fill="#D1C8B9" transform="translate(0,0)"/>
<path d="" fill="#D7CCBC" transform="translate(0,0)"/>
<path d="" fill="#D4CBB8" transform="translate(0,0)"/>
<path d="" fill="#D6CDBC" transform="translate(0,0)"/>
<path d="" fill="#D0C8BA" transform="translate(0,0)"/>
<path d="" fill="#D2C8B9" transform="translate(0,0)"/>
<path d="" fill="#D1CAB8" transform="translate(0,0)"/>
<path d="" fill="#D6CCBB" transform="translate(0,0)"/>
<path d="" fill="#D1C8B9" transform="translate(0,0)"/>
<path d="" fill="#D7CDBC" transform="translate(0,0)"/>
<path d="" fill="#D2C8BA" transform="translate(0,0)"/>
<path d="" fill="#D1C7B8" transform="translate(0,0)"/>
<path d="" fill="#D2CAB7" transform="translate(0,0)"/>
<path d="" fill="#CFC8B6" transform="translate(0,0)"/>
<path d="" fill="#D1C9B7" transform="translate(0,0)"/>
<path d="" fill="#D2C9B7" transform="translate(0,0)"/>
<path d="" fill="#D5CBBA" transform="translate(0,0)"/>
<path d="" fill="#D0C9B9" transform="translate(0,0)"/>
<path d="" fill="#D5C8B8" transform="translate(0,0)"/>
<path d="" fill="#D1C9BA" transform="translate(0,0)"/>
<path d="" fill="#D4CABA" transform="translate(0,0)"/>
<path d="" fill="#D4CCBD" transform="translate(0,0)"/>
<path d="" fill="#D1C8B8" transform="translate(0,0)"/>
<path d="" fill="#D1C7B8" transform="translate(0,0)"/>
<path d="" fill="#D0C8B8" transform="translate(0,0)"/>
<path d="" fill="#CFC6B6" transform="translate(0,0)"/>
<path d="" fill="#D3CABA" transform="translate(0,0)"/>
<path d="" fill="#D7CEBC" transform="translate(0,0)"/>
<path d="" fill="#D4CEBD" transform="translate(0,0)"/>
<path d="" fill="#CFC7B8" transform="translate(0,0)"/>
<path d="" fill="#D0C7B8" transform="translate(0,0)"/>
<path d="" fill="#CFC7B8" transform="translate(0,0)"/>
<path d="" fill="#D0C8B6" transform="translate(0,0)"/>
<path d="" fill="#CFC7B6" transform="translate(0,0)"/>
<path d="" fill="#D2CCBA" transform="translate(0,0)"/>
<path d="" fill="#D0C9B8" transform="translate(0,0)"/>
<path d="" fill="#CEC6B7" transform="translate(0,0)"/>
<path d="" fill="#D0C9B7" transform="translate(0,0)"/>
<path d="" fill="#D4C7B6" transform="translate(0,0)"/>
<path d="" fill="#D0C3B7" transform="translate(0,0)"/>
<path d="" fill="#D2C9BA" transform="translate(0,0)"/>
<path d="" fill="#D2C9B9" transform="translate(0,0)"/>
<path d="" fill="#CFC6B7" transform="translate(0,0)"/>
<path d="" fill="#CEC8B7" transform="translate(0,0)"/>
<path d="" fill="#CCC3B5" transform="translate(0,0)"/>
<path d="" fill="#CDC5B5" transform="translate(0,0)"/>
<path d="" fill="#D5CCBD" transform="translate(0,0)"/>
<path d="" fill="#D5CBBD" transform="translate(0,0)"/>
<path d="" fill="#CDC1B6" transform="translate(0,0)"/>
<path d="" fill="#CDC6B6" transform="translate(0,0)"/>
<path d="" fill="#CFC8BA" transform="translate(0,0)"/>
<path d="" fill="#D6CDBE" transform="translate(0,0)"/>
<path d="" fill="#D6CFBE" transform="translate(0,0)"/>
<path d="" fill="#D6CDBE" transform="translate(0,0)"/>
<path d="" fill="#D7CDBE" transform="translate(0,0)"/>
<path d="" fill="#D7CDBD" transform="translate(0,0)"/>
<path d="" fill="#D4C8BB" transform="translate(0,0)"/>
<path d="" fill="#CFC6B5" transform="translate(0,0)"/>
<path d="" fill="#CDC6B6" transform="translate(0,0)"/>
<path d="" fill="#CEC5B6" transform="translate(0,0)"/>
<path d="" fill="#CFC8B8" transform="translate(0,0)"/>
<path d="" fill="#CFC7B6" transform="translate(0,0)"/>
<path d="" fill="#7D7B78" transform="translate(0,0)"/>
<path d="" fill="#787877" transform="translate(0,0)"/>
<path d="" fill="#5B5B5A" transform="translate(0,0)"/>
<path d="" fill="#5A5957" transform="translate(0,0)"/>
<path d="" fill="#575655" transform="translate(0,0)"/>
<path d="" fill="#6E6F6E" transform="translate(0,0)"/>
<path d="" fill="#777777" transform="translate(0,0)"/>
<path d="" fill="#6C6A69" transform="translate(0,0)"/>
<path d="" fill="#797878" transform="translate(0,0)"/>
</svg>
