<?xml version="1.0" standalone="no"?>
<!DOCTYPE svg PUBLIC "-//W3C//DTD SVG 20010904//EN"
 "http://www.w3.org/TR/2001/REC-SVG-20010904/DTD/svg10.dtd">
<svg version="1.0" xmlns="http://www.w3.org/2000/svg"
 width="1024.000000pt" height="1024.000000pt" viewBox="0 0 1024.000000 1024.000000"
 preserveAspectRatio="xMidYMid meet">

<g transform="translate(0.000000,1024.000000) scale(0.100000,-0.100000)"
fill="#000000" stroke="none">
<path d="M2210 7000 c-233 -30 -447 -141 -642 -332 -583 -573 -822 -1566 -539
-2243 83 -199 239 -385 323 -385 23 0 34 9 58 46 62 98 91 206 170 624 56 297
147 520 311 761 21 31 101 135 177 232 240 302 285 390 417 812 26 83 72 203
101 269 60 131 60 132 -6 166 -84 43 -249 65 -370 50z"/>
<path d="M2707 6853 c-27 -52 -46 -128 -77 -298 -89 -481 -176 -674 -456 -999
-103 -120 -233 -292 -234 -310 0 -12 281 1 435 20 305 37 624 131 818 239 81
46 82 50 82 285 0 184 -3 218 -28 336 -35 167 -63 250 -127 372 -52 100 -147
226 -211 281 -50 42 -149 101 -171 101 -9 0 -24 -12 -31 -27z"/>
<path d="M7561 6354 c-162 -43 -302 -189 -340 -354 -18 -77 -13 -220 9 -292
65 -210 245 -338 475 -338 242 0 430 144 490 377 69 264 -95 555 -346 612 -64
15 -225 12 -288 -5z m218 -100 c94 -27 169 -121 200 -249 16 -64 16 -225 0
-290 -45 -184 -173 -267 -345 -224 -62 16 -134 83 -167 156 -60 135 -56 345 9
474 30 61 104 126 157 138 62 13 88 13 146 -5z"/>
<path d="M3724 6352 c-35 -24 -18 -67 30 -76 66 -13 66 -11 66 -401 0 -390 0
-388 -66 -401 -40 -7 -55 -29 -43 -61 l8 -23 370 0 370 0 15 28 c7 15 24 69
37 120 25 105 21 127 -26 127 -24 0 -33 -8 -54 -50 -46 -88 -131 -125 -290
-125 -122 0 -121 -1 -121 191 l0 159 98 0 c111 0 125 -7 143 -74 9 -32 13 -36
44 -36 44 0 47 9 43 175 l-3 130 -37 3 c-33 3 -38 0 -44 -21 -13 -53 -45 -69
-149 -75 l-95 -5 0 162 0 161 28 1 c103 2 190 -4 224 -18 43 -17 82 -58 103
-110 13 -30 18 -34 47 -31 32 3 33 4 36 53 1 28 -3 84 -10 125 l-13 75 -350 2
c-192 2 -355 0 -361 -5z"/>
<path d="M4612 6351 c-15 -9 -41 -143 -42 -212 0 -52 16 -72 52 -67 18 2 26
13 36 48 7 25 18 56 25 70 18 37 80 63 164 68 l73 5 -1 -329 c0 -181 -4 -351
-8 -378 -9 -53 -27 -73 -74 -83 -33 -7 -42 -23 -33 -58 l6 -25 198 0 c209 0
222 3 222 46 0 19 -9 25 -47 36 -33 9 -52 21 -60 38 -10 19 -13 118 -13 388
l0 362 63 0 c68 -1 127 -18 158 -46 11 -10 27 -44 36 -76 17 -61 34 -75 74
-63 21 7 22 11 15 119 -3 61 -9 123 -12 139 l-6 27 -407 0 c-223 0 -412 -4
-419 -9z"/>
<path d="M5532 6347 c-21 -24 -2 -56 39 -67 70 -19 69 -14 69 -400 0 -254 -4
-351 -13 -369 -7 -15 -29 -30 -55 -39 -40 -13 -43 -16 -40 -46 l3 -31 199 0
c178 0 200 2 210 18 16 24 -3 49 -45 60 -64 15 -69 30 -69 208 l0 159 230 0
230 0 0 -158 c0 -174 -6 -195 -59 -207 -39 -8 -55 -29 -47 -60 l6 -25 200 0
200 0 6 25 c9 38 1 49 -49 62 -33 9 -48 19 -53 35 -13 41 -9 710 4 735 7 13
26 25 47 29 41 7 58 25 53 56 l-3 23 -215 0 -215 0 -3 -24 c-4 -29 20 -51 55
-51 13 0 35 -11 48 -25 24 -23 25 -29 25 -165 l0 -140 -230 0 -230 0 0 139 c0
158 5 171 75 193 42 14 56 38 35 63 -17 21 -392 22 -408 2z"/>
<path d="M6717 6353 c-4 -3 -7 -18 -7 -33 0 -23 6 -29 40 -39 71 -21 70 -14
70 -406 0 -267 -3 -355 -13 -368 -7 -10 -30 -24 -52 -31 -36 -13 -40 -18 -40
-48 l0 -33 205 0 205 0 0 29 c0 30 -7 36 -62 56 -18 7 -36 23 -43 39 -8 19
-10 132 -8 375 l3 348 24 19 c13 10 32 19 42 19 10 0 28 9 39 20 16 16 18 25
10 40 -10 19 -22 20 -209 20 -109 0 -201 -3 -204 -7z"/>
<path d="M3948 5075 c-163 -41 -300 -164 -357 -320 -31 -83 -38 -209 -17 -300
60 -252 300 -405 578 -368 181 25 261 78 293 197 l18 69 -23 19 c-29 23 -37
23 -58 -4 -9 -13 -42 -48 -72 -78 -70 -71 -138 -96 -241 -87 -181 15 -289 159
-289 386 0 90 17 175 45 231 31 61 100 126 154 145 51 17 139 20 195 4 67 -19
131 -91 160 -181 6 -20 70 -26 81 -7 12 19 -6 239 -21 254 -41 41 -337 68
-446 40z"/>
<path d="M4945 5083 c-213 -47 -360 -199 -396 -407 -39 -226 70 -450 264 -542
261 -123 586 -23 704 217 42 84 52 135 53 247 0 238 -159 441 -379 482 -53 10
-207 12 -246 3z m218 -126 c61 -25 129 -100 159 -175 20 -50 22 -74 22 -202 0
-126 -2 -152 -22 -200 -48 -121 -135 -183 -257 -184 -190 -2 -299 142 -300
399 0 141 25 230 86 299 48 54 84 75 148 85 59 10 104 4 164 -22z"/>
<path d="M5647 5063 c-4 -3 -7 -17 -7 -29 0 -25 26 -44 59 -44 11 0 29 -12 40
-26 20 -26 21 -38 21 -376 0 -217 -4 -356 -10 -368 -6 -11 -28 -25 -50 -31
-50 -15 -64 -31 -56 -64 l6 -25 213 2 212 3 0 34 c0 32 -3 35 -48 48 -35 10
-50 21 -57 39 -6 14 -10 93 -10 175 l0 149 93 0 c111 0 132 -11 148 -76 11
-44 13 -45 48 -42 l36 3 0 155 0 155 -35 3 c-33 3 -37 0 -49 -33 -17 -49 -57
-65 -161 -65 l-80 0 0 165 0 165 93 0 c155 0 220 -31 264 -125 20 -43 46 -55
76 -33 17 13 17 22 7 123 -6 60 -13 112 -16 117 -6 10 -728 11 -737 1z"/>
<path d="M6499 5054 c-19 -23 0 -47 46 -60 77 -21 75 -12 75 -410 0 -400 4
-382 -79 -404 -30 -8 -41 -16 -41 -30 0 -51 -2 -50 221 -50 l209 0 6 25 c9 38
1 49 -50 63 -35 9 -49 19 -56 38 -6 14 -10 93 -10 176 l0 150 106 -4 c118 -3
125 -7 145 -81 12 -44 30 -54 65 -38 l25 11 -3 152 -3 153 -32 3 c-28 3 -34
-1 -52 -36 -26 -50 -58 -62 -167 -62 l-84 0 0 165 0 165 90 0 c106 0 180 -14
214 -41 14 -11 37 -44 52 -74 21 -43 31 -55 49 -55 33 0 55 26 50 58 -2 15 -7
59 -10 99 -3 39 -8 78 -11 87 -5 14 -48 16 -374 16 -323 0 -369 -2 -381 -16z"/>
<path d="M7375 5059 c-4 -5 -4 -21 -1 -34 5 -18 15 -25 45 -30 78 -13 76 -3
79 -399 3 -344 2 -353 -18 -379 -12 -15 -39 -31 -61 -37 -37 -10 -40 -13 -37
-43 l3 -32 383 -3 383 -2 15 36 c8 20 24 76 36 125 17 72 18 92 8 104 -15 19
-70 20 -70 2 0 -7 -14 -35 -30 -61 -24 -37 -43 -53 -88 -74 -51 -24 -69 -26
-174 -27 -159 0 -152 -8 -156 190 l-3 155 105 0 c117 0 139 -10 152 -67 10
-49 13 -53 36 -53 47 0 49 7 46 166 l-3 149 -32 3 c-29 3 -34 -1 -47 -33 -21
-49 -63 -65 -171 -65 l-85 0 0 166 0 167 128 -5 c161 -6 195 -21 242 -110 32
-59 45 -67 82 -47 19 10 20 17 14 88 -3 42 -9 95 -12 119 l-6 42 -379 0 c-255
0 -380 -3 -384 -11z"/>
<path d="M8334 5056 c-12 -31 1 -50 40 -61 78 -22 76 -14 76 -400 0 -190 -4
-355 -9 -368 -7 -18 -24 -30 -61 -42 -48 -16 -51 -19 -48 -48 l3 -32 378 -3
378 -2 14 35 c9 19 24 73 35 120 22 96 17 125 -25 125 -19 0 -30 -10 -49 -47
-29 -59 -48 -76 -111 -104 -68 -30 -252 -40 -290 -15 l-25 16 0 160 0 160 98
0 c114 0 136 -10 152 -71 11 -39 13 -40 48 -37 l37 3 0 150 0 150 -37 3 c-34
3 -38 0 -52 -33 -20 -48 -63 -65 -166 -65 l-80 0 0 165 0 165 103 0 c168 0
236 -32 267 -124 13 -39 39 -53 70 -36 24 13 26 58 9 175 l-11 75 -370 0
c-312 0 -369 -2 -374 -14z"/>
<path d="M1760 4833 c-5 -21 -26 -112 -46 -203 -85 -393 -99 -438 -179 -564
-75 -121 -75 -119 -14 -145 102 -45 197 -63 329 -64 178 -2 301 28 464 111
219 112 408 294 594 572 59 89 172 300 172 323 0 4 -295 7 -655 7 l-654 0 -11
-37z m1128 -160 c49 -3 78 -9 70 -14 -7 -5 -13 -14 -13 -21 0 -10 -118 -13
-600 -13 -593 0 -600 0 -600 20 0 11 5 23 10 27 12 9 1018 10 1133 1z m-683
-153 l59 -60 61 60 c33 33 65 60 71 60 5 0 36 -26 67 -58 l58 -59 59 61 59 61
77 -77 77 -77 -41 -53 c-22 -29 -57 -69 -76 -88 l-36 -34 -60 59 -59 59 -66
-64 -66 -63 -64 63 -64 64 -66 -64 -66 -63 -65 64 -64 63 -58 -57 c-32 -31
-63 -57 -69 -57 -14 0 -155 149 -151 160 5 12 155 150 164 150 5 0 32 -24 61
-52 l53 -53 58 58 c31 31 64 57 72 57 9 0 42 -27 75 -60z m395 -297 c0 -4 -10
-17 -22 -30 l-21 -23 -443 0 c-287 0 -445 4 -449 10 -3 6 -3 19 0 30 6 20 16
20 471 20 255 0 464 -3 464 -7z"/>
<path d="M2084 4467 l-42 -42 44 -50 44 -50 45 45 45 46 -47 46 -48 46 -41
-41z"/>
<path d="M1842 4458 l-42 -39 37 -44 38 -44 43 43 43 42 -39 41 -39 40 -41
-39z"/>
<path d="M2345 4460 l-39 -40 39 -42 c22 -24 41 -45 43 -47 1 -3 23 15 47 39
l45 44 -42 43 c-23 24 -45 43 -48 43 -3 0 -24 -18 -45 -40z"/>
<path d="M2597 4462 l-37 -38 45 -44 45 -44 40 39 40 39 -42 43 c-23 24 -45
43 -48 43 -3 0 -23 -17 -43 -38z"/>
</g>
</svg>
